<svg aria-hidden="true" xmlns="http://www.w3.org/2000/svg" xmlns:xlink="http://www.w3.org/1999/xlink"><symbol fill="none" viewBox="0 0 9 8" id="arrow" xmlns="http://www.w3.org/2000/svg"><path d="M8.84 7.601c.025-2.715.01-5.213.043-7.601-2.713.028-5.216.01-7.6.044-.01.62-.011 1.094-.02 1.687 1.629-.008 3.312-.014 4.724-.022L.883 6.814 2.069 8l5.105-5.104c-.014 1.573-.006 3.146-.027 4.718.573 0 1.19-.012 1.693-.013Z" fill="currentColor"/></symbol><symbol fill="none" viewBox="0 0 16 16" id="del" xmlns="http://www.w3.org/2000/svg"><path d="m1 1 7 7m7 7L8 8m0 0 7-7L1 15" stroke="currentColor" stroke-width="2"/></symbol><symbol fill="none" viewBox="0 0 72 42" id="dostavka" xmlns="http://www.w3.org/2000/svg"><path fill-rule="evenodd" clip-rule="evenodd" d="M28.59 31.383h21.899c2.48-7.193 12.826-7.124 15.282 0h1.83V21.014c0-1.292-1.075-2.35-2.385-2.35H49.08c-1.162 0-2.104-.929-2.104-2.074V4.148H10.917v2.488h3.87c2.77 0 2.77 4.147 0 4.147h-3.87v4.01H21.02c2.771 0 2.771 4.147 0 4.147H10.917v12.442h2.392c2.479-7.193 12.826-7.123 15.28 0Zm-21.882-20.6H4.183c-2.771 0-2.771-4.147 0-4.147h2.525V2.074C6.708.929 7.65 0 8.813 0c3.22 0 38.619.014 38.619 0 5.761 0 10.78 2.81 13.733 7.693l4.126 6.824c3.601.04 6.519 2.942 6.519 6.497v12.442c0 1.145-.943 2.074-2.105 2.074h-3.669c-.754 3.66-4.036 6.359-7.906 6.359s-7.152-2.699-7.906-6.36H28.855c-.754 3.66-4.036 6.36-7.906 6.36s-7.152-2.699-7.906-6.36h-4.23c-1.163 0-2.105-.928-2.105-2.073v-6.221h-4.63c-2.77 0-2.77-4.147 0-4.147h4.63V18.94h-4.63c-2.77 0-2.77-4.148 0-4.148h4.63v-4.009Zm54.15 20.469a3.763 3.763 0 0 1 0 5.376c-2.423 2.389-6.587.69-6.587-2.688s4.164-5.077 6.587-2.688Zm-.452-16.736h-9.221V4.71c2.685.848 4.88 2.628 6.378 5.105l2.843 4.701ZM23.678 31.252a3.763 3.763 0 0 1 0 5.376c-2.424 2.389-6.588.69-6.588-2.688.001-3.378 4.164-5.077 6.587-2.688Z" fill="currentColor"/></symbol><symbol fill="none" viewBox="0 0 10 6" id="dropdown" xmlns="http://www.w3.org/2000/svg"><path d="M10 1.429 8.438 0 5 3.143 1.563 0 0 1.429 5 6l5-4.571Z" fill="currentColor"/></symbol><symbol fill="none" viewBox="0 0 20 20" id="filter" xmlns="http://www.w3.org/2000/svg"><path d="M20 16.131a.75.75 0 0 1-.75.75h-5.1a2.93 2.93 0 0 1-5.66 0H.75a.75.75 0 0 1 0-1.5h7.74a2.93 2.93 0 0 1 5.66 0h5.1a.75.75 0 0 1 .75.75Zm0-13.21a.75.75 0 0 1-.75.75H16.8a2.93 2.93 0 0 1-5.66 0H.75a.75.75 0 0 1 0-1.5h10.39a2.93 2.93 0 0 1 5.66 0h2.45a.74.74 0 0 1 .75.75Zm0 6.6a.741.741 0 0 1-.75.75H7.55a2.93 2.93 0 0 1-5.66 0H.75a.75.75 0 0 1 0-1.5h1.14a2.93 2.93 0 0 1 5.66 0h11.7a.75.75 0 0 1 .75.75Z" fill="currentColor"/></symbol><symbol fill="none" viewBox="0 0 56 56" id="poluchenie" xmlns="http://www.w3.org/2000/svg"><g clip-path="url(#fa)"><path d="M53.68 11.739a1.725 1.725 0 0 0-1.07-1.597L28.236.13a1.726 1.726 0 0 0-1.312 0L2.55 10.142a1.726 1.726 0 0 0-1.07 1.597v31.68a1.726 1.726 0 0 0 1.07 1.597l24.374 10.013c.42.172.89.172 1.31 0 .02-.007-.902.371 24.376-10.013a1.726 1.726 0 0 0 1.07-1.596V11.739Zm-26.1 8.292-8.98-3.69 19.408-8.466 9.581 3.936-20.009 8.22ZM4.932 14.458l7.748 3.183v8.98a1.726 1.726 0 0 0 3.452 0V19.06l9.722 3.994v27.805L4.932 42.263V14.458ZM27.58 3.591l5.982 2.458-19.408 8.466-6.583-2.704 20.01-8.22Zm1.726 19.462 20.922-8.595v27.805l-20.922 8.595V23.053Z" fill="currentColor"/></g><defs><clipPath id="fa"><path fill="currentColor" d="M0 0h55.159v55.159H0z"/></clipPath></defs></symbol><symbol fill="none" viewBox="0 0 64 64" id="raschet" xmlns="http://www.w3.org/2000/svg"><path d="M55.159 29.55h-13.79c-4.322 0-7.88 3.557-7.88 7.879 0 4.322 3.558 7.88 7.88 7.88h7.88v5.91c0 1.081-.888 1.97-1.97 1.97H15.76c-3.242 0-5.909-2.668-5.909-5.91v-29.55c0-3.242 2.667-5.91 5.91-5.91h3.94c1.081 0 1.97-.888 1.97-1.97 0-1.08-.889-1.97-1.97-1.97h-3.94c-5.404 0-9.85 4.447-9.85 9.85v29.55c0 5.403 4.446 9.85 9.85 9.85h31.52c3.242 0 5.909-2.668 5.909-5.91v-5.91h1.97c1.081 0 1.97-.889 1.97-1.97v-11.82c0-1.081-.889-1.97-1.97-1.97Zm-1.97 11.819h-11.82c-2.16 0-3.94-1.78-3.94-3.94 0-2.161 1.78-3.94 3.94-3.94h11.82v7.88Z" fill="currentColor"/><path d="M15.05 15.897c-2.199.96-1.472 3.802.709 3.802h31.52c1.08 0 1.97.889 1.97 1.97v1.97c0 1.082.887 1.97 1.969 1.97 1.081 0 1.97-.888 1.97-1.97v-1.97a5.91 5.91 0 0 0-5.91-5.91h-.63L43.2 7.151a1.98 1.98 0 0 0-2.54-1.103l-25.61 9.85Zm27.343-.138H26.377l13.888-5.338 2.128 5.338Z" fill="currentColor"/></symbol><symbol fill="none" viewBox="0 0 19 18" id="user" xmlns="http://www.w3.org/2000/svg"><path fill-rule="evenodd" clip-rule="evenodd" d="M5.89 4a4 4 0 1 1 8 0 4 4 0 0 1-8 0Zm0 6a5 5 0 0 0-5 5 3 3 0 0 0 3 3h12a3 3 0 0 0 3-3 5 5 0 0 0-5-5h-8Z" fill="currentColor"/></symbol><symbol fill="none" viewBox="0 0 43 55" id="zayavka" xmlns="http://www.w3.org/2000/svg"><path d="M25.968.803a5.93 5.93 0 0 1 4.09 1.629l10.092 9.546a5.976 5.976 0 0 1 1.862 4.325v32.524a5.96 5.96 0 0 1-5.953 5.952H6.756a5.96 5.96 0 0 1-5.953-5.952V6.756A5.96 5.96 0 0 1 6.756.803h19.212ZM6.756 4.337a2.422 2.422 0 0 0-2.42 2.419v42.071a2.422 2.422 0 0 0 2.42 2.42h29.303a2.423 2.423 0 0 0 2.42-2.42V16.896H29.15a3.864 3.864 0 0 1-3.859-3.86v-8.7H6.756Zm22.07 8.698c0 .18.146.326.325.326h7.32l-7.646-7.233v6.907Z" fill="currentColor" stroke="currentColor" stroke-width=".394"/><path d="M32.605 21.93H9.582a1.57 1.57 0 0 0 0 3.14h23.023a1.57 1.57 0 1 0 0-3.14Zm0 8.373H9.582a1.57 1.57 0 0 0 0 3.14h23.023a1.57 1.57 0 1 0 0-3.14Zm-15.413 8.372h-7.61a1.57 1.57 0 0 0 0 3.14h7.61a1.57 1.57 0 0 0 0-3.14Z" fill="currentColor"/></symbol></svg>