<svg width="106" height="106" viewBox="0 0 106 106" fill="none" xmlns="http://www.w3.org/2000/svg">
<circle opacity="0.05" cx="53" cy="53" r="53" fill="#E31D4D"/>
<circle opacity="0.2" cx="53" cy="53" r="40" fill="#E31D4D"/>
<circle cx="53" cy="53" r="25" fill="#E31D4D"/>
<path d="M53.289 63.8043L53.2772 63.8065L53.201 63.844L53.1796 63.8483L53.1645 63.844L53.0884 63.8065C53.0769 63.8029 53.0684 63.8047 53.0626 63.8118L53.0583 63.8225L53.0401 64.2817L53.0455 64.3031L53.0562 64.3171L53.1678 64.3965L53.1839 64.4008L53.1967 64.3965L53.3083 64.3171L53.3212 64.2999L53.3255 64.2817L53.3072 63.8236C53.3044 63.8122 53.2983 63.8057 53.289 63.8043ZM53.5733 63.6831L53.5593 63.6852L53.3609 63.785L53.3501 63.7957L53.3469 63.8075L53.3662 64.2688L53.3716 64.2817L53.3802 64.2892L53.5958 64.389C53.6094 64.3925 53.6197 64.3897 53.6269 64.3804L53.6312 64.3654L53.5947 63.7067C53.5911 63.6938 53.584 63.686 53.5733 63.6831ZM52.8062 63.6852C52.8015 63.6824 52.7959 63.6814 52.7905 63.6826C52.7851 63.6838 52.7804 63.6871 52.7773 63.6917L52.7708 63.7067L52.7344 64.3654C52.7351 64.3782 52.7412 64.3868 52.7526 64.3911L52.7687 64.389L52.9843 64.2892L52.9951 64.2806L52.9993 64.2688L53.0176 63.8075L53.0144 63.7947L53.0036 63.7839L52.8062 63.6852Z" fill="white"/>
<path d="M52.6547 41C55.2153 41 57.671 42.0172 59.4816 43.8278C61.2922 45.6384 62.3094 48.0941 62.3094 50.6547C62.3094 53.9523 60.5115 56.6513 58.617 58.5876C57.6705 59.5446 56.6377 60.4122 55.5318 61.1794L55.0748 61.4905L54.8602 61.6331L54.4558 61.8906L54.0954 62.1105L53.6491 62.3701C53.3462 62.543 53.0035 62.6339 52.6547 62.6339C52.3059 62.6339 51.9632 62.543 51.6603 62.3701L51.214 62.1105L50.6562 61.7672L50.4502 61.6331L50.0104 61.3403C48.8173 60.5331 47.706 59.6111 46.6924 58.5876C44.7979 56.6502 43 53.9523 43 50.6547C43 48.0941 44.0172 45.6384 45.8278 43.8278C47.6384 42.0172 50.0941 41 52.6547 41ZM52.6547 47.4365C52.2321 47.4365 51.8136 47.5197 51.4231 47.6814C51.0327 47.8432 50.6779 48.0802 50.3791 48.3791C50.0802 48.6779 49.8432 49.0327 49.6814 49.4231C49.5197 49.8136 49.4365 50.2321 49.4365 50.6547C49.4365 51.0773 49.5197 51.4958 49.6814 51.8863C49.8432 52.2767 50.0802 52.6315 50.3791 52.9303C50.6779 53.2292 51.0327 53.4662 51.4231 53.6279C51.8136 53.7897 52.2321 53.8729 52.6547 53.8729C53.5082 53.8729 54.3268 53.5339 54.9303 52.9303C55.5339 52.3268 55.8729 51.5082 55.8729 50.6547C55.8729 49.8012 55.5339 48.9826 54.9303 48.3791C54.3268 47.7755 53.5082 47.4365 52.6547 47.4365Z" fill="white"/>
</svg>
