<svg width="24" height="25" viewBox="0 0 24 25" fill="none" xmlns="http://www.w3.org/2000/svg">
<path d="M17.8142 14.8046C13.4811 14.8264 12.7797 17.5329 12.5478 19.8194L12.4409 20.8318H11.5691L11.4621 19.8194C11.2283 17.5309 10.5071 14.8264 6.32246 14.8046C5.62107 13.3087 5.33179 12.0981 5.33179 10.7349C5.33198 9.86056 5.50584 8.99496 5.84329 8.18835C6.18074 7.38174 6.67506 6.65019 7.29755 6.03619C7.92003 5.42218 8.65828 4.93794 9.46944 4.61159C10.2806 4.28523 11.1485 4.12325 12.0228 4.13506C16.0152 4.13506 18.6702 7.30521 18.6702 10.7567C18.6702 12.0981 18.5434 13.3087 17.8202 14.8046M11.9792 0C5.3952 0 0 5.58739 0 12.429C0 19.2705 5.3952 24.8797 11.9792 24.8797C18.6266 24.8797 24 19.2923 24 12.429C24 5.56559 18.6266 0 11.9792 0Z" fill="#29B24A"/>
</svg>
