<svg width="24" height="24" viewBox="0 0 24 24" fill="none" xmlns="http://www.w3.org/2000/svg">
<g clip-path="url(#clip0_75_618)">
<path d="M12 24C18.6274 24 24 18.6274 24 12C24 5.37258 18.6274 0 12 0C5.37258 0 0 5.37258 0 12C0 18.6274 5.37258 24 12 24Z" fill="#FF5226"/>
<path d="M14.0848 19.9992V6.38249H12.5903C11.5131 6.38249 10.696 6.62668 10.1408 7.11589C9.58549 7.5873 9.30785 8.21557 9.30785 9.00154C9.30785 9.59504 9.40542 10.1012 9.60136 10.5201C9.79729 10.9389 10.0837 11.323 10.4589 11.6723C10.8349 12.0216 11.3084 12.4057 11.8804 12.8245L13.3011 13.8454L9.13651 20H6L9.96942 14.2388L11.8312 16.0193L10.3613 15.0239C9.62216 14.5108 8.9181 13.9421 8.25442 13.3222C7.66583 12.7627 7.21685 12.1522 6.90668 11.4892C6.59652 10.8253 6.44105 10.0486 6.44105 9.15839C6.44105 7.62207 6.95587 6.38249 7.98471 5.43967C9.03022 4.47989 10.5572 4 12.5657 4H17V19.9992H14.0848Z" fill="white"/>
</g>
<defs>
<clipPath id="clip0_75_618">
<rect width="24" height="24" fill="white"/>
</clipPath>
</defs>
</svg>
