<svg width="675" height="725" viewBox="0 0 675 725" fill="none" xmlns="http://www.w3.org/2000/svg">
<g clip-path="url(#clip0_182_1670)">
<path d="M-41.5784 -122.032C-84.0582 -88.1764 -101.875 -60.5114 -96.0758 -37.4216C-84.3909 9.02323 21.4342 28.2288 133.468 48.5706C253.087 70.289 376.77 92.7404 391.587 150.101C399.701 181.522 374.725 220.424 315.24 269.021C255.863 317.533 231.2 346.228 237.621 359.337C246.49 377.462 314.449 361.921 393.146 343.913C494.722 320.676 621.15 291.769 644.93 333.074C661.543 361.926 626.273 423.34 540.146 515.623C446.829 615.587 411.203 682.535 431.193 720.273C460.507 775.603 606.769 752.781 713.555 736.113C775.464 726.448 828.939 718.101 833.473 729.692C836.409 737.191 819.166 753.351 780.777 779.067L781.591 780.283C821.179 753.763 838.103 737.517 834.837 729.174C829.881 716.5 781.003 724.127 713.339 734.687C606.985 751.285 461.329 774.028 432.496 719.61C413.089 682.997 449.672 614.709 541.227 516.64C629.085 422.526 663.421 362.258 646.231 332.368C621.906 290.119 500.228 317.947 392.852 342.509C314.766 360.367 247.323 375.79 238.971 358.715C232.985 346.478 258.252 317.503 316.216 270.166C376.192 221.173 401.313 181.783 393.049 149.752C378.003 91.4888 253.844 68.9527 133.793 47.1468C22.2349 26.8898 -83.1142 7.76897 -94.5873 -37.7639C-100.254 -60.2336 -82.5914 -87.4269 -40.6194 -120.877L-41.5251 -122.018L-41.5784 -122.032Z" fill="white" fill-opacity="0.5"/>
<path d="M-56.2241 -125.572C-97.4078 -92.9368 -114.728 -65.8513 -109.201 -42.8061C-97.8065 4.6156 8.92481 26.1305 121.94 48.8734C242.7 73.1924 367.567 98.3553 382.055 157.053C389.821 188.494 365.554 226.56 307.877 273.461C249.784 320.692 225.686 348.926 232.06 362.264C240.921 380.844 308.678 366.589 387.123 350.052C488.431 328.724 614.528 302.166 638.569 344.625C655.213 373.998 621.151 434.738 537.35 525.093C446.692 622.847 412.318 689.004 432.257 727.356C461.83 784.224 608.082 764.15 714.851 749.515C776.657 741.034 830.054 733.721 834.526 745.594C837.4 753.22 820.494 769.028 782.857 793.906L783.654 795.131C822.473 769.459 839.078 753.555 835.874 745.086C830.986 732.104 782.184 738.81 714.641 748.063C608.288 762.637 462.632 782.614 433.525 726.67C414.177 689.46 449.448 621.975 538.385 526.069C623.857 433.895 657.038 374.316 639.807 343.887C615.231 300.502 493.862 326.061 386.784 348.607C308.932 365.004 241.701 379.157 233.347 361.612C227.409 349.146 252.069 320.677 308.764 274.568C366.914 227.281 391.343 188.717 383.427 156.665C368.721 97.0825 243.395 71.825 122.175 47.4114C9.63594 24.7534 -96.6628 3.32573 -107.829 -43.1938C-113.215 -65.6455 -96.0571 -92.2329 -55.3644 -124.472L-56.2702 -125.613L-56.2241 -125.572Z" fill="white" fill-opacity="0.5"/>
<path d="M-70.908 -129.424C-110.819 -97.9733 -127.678 -71.491 -122.408 -48.5003C-111.347 -0.0990568 -3.61284 23.7371 110.433 48.965C232.417 75.9496 358.547 103.845 372.688 163.89C380.094 195.292 356.529 232.548 300.627 277.772C243.793 323.759 220.268 351.505 226.578 365.082C235.441 384.133 303.013 371.153 381.243 356.113C482.358 336.672 608.188 312.493 632.5 356.122C649.385 386.458 617.44 444.828 534.795 534.539C446.772 630.119 413.616 695.506 433.486 734.438C463.309 792.869 609.651 775.598 716.489 762.992C778.245 755.709 831.572 749.403 835.985 761.603C838.787 769.337 822.217 784.794 785.325 808.859L786.123 810.085C824.19 785.252 840.457 769.699 837.359 761.102C832.55 747.827 783.787 753.588 716.306 761.546C609.893 774.109 464.131 791.293 434.772 733.785C415.478 696.005 449.487 629.293 535.85 535.548C618.978 445.312 651.003 386.378 633.767 355.435C608.947 310.887 487.833 334.162 380.966 354.699C303.323 369.626 236.277 382.504 227.904 364.497C221.996 351.811 246.1 323.821 301.542 278.929C357.909 233.302 381.629 195.575 374.099 163.569C359.749 102.657 233.15 74.6494 110.74 47.5509C-2.84599 22.4175 -110.138 -1.3144 -120.997 -48.8205C-126.127 -71.2178 -109.43 -97.2018 -70.019 -128.274L-70.9248 -129.414L-70.908 -129.424Z" fill="white" fill-opacity="0.5"/>
<path d="M-85.6326 -133.573C-124.305 -103.287 -140.687 -77.4173 -135.709 -54.505C-124.991 -5.14116 -16.1985 21.0738 98.9571 48.8083C222.221 78.516 349.697 109.209 363.472 170.567C370.498 201.896 347.615 238.308 293.473 281.909C237.893 326.678 214.923 353.946 221.159 367.746C230.008 387.277 297.421 375.581 375.495 362.023C476.455 344.493 602.122 322.68 626.664 367.524C643.564 398.391 612.738 456.093 532.406 543.929C488.179 592.281 457.832 633.835 442.21 667.404C427.985 697.941 425.512 722.862 434.836 741.466C464.887 801.498 611.398 787.051 718.376 776.478C780.098 770.383 833.401 765.125 837.752 777.608C840.482 785.452 824.232 800.567 788.085 823.819L788.883 825.045C826.197 801.05 842.179 785.821 839.136 777.124C834.405 763.556 785.682 768.374 718.253 775.02C611.691 785.533 465.761 799.936 436.166 740.811C416.968 702.458 449.726 636.537 533.528 544.899C614.327 456.547 645.241 398.299 627.999 366.799C602.948 321.034 482.003 342.032 375.303 360.561C297.825 374.021 230.92 385.626 222.552 367.121C216.709 354.196 240.223 326.704 294.456 283.028C349.055 239.05 372.127 202.147 364.96 170.224C350.993 107.989 223.065 77.1742 99.3685 47.3792C-15.3447 19.749 -123.695 -6.36159 -134.211 -54.8305C-139.065 -77.1396 -122.856 -102.527 -84.6664 -132.444L-85.5723 -133.585L-85.6326 -133.573Z" fill="white" fill-opacity="0.5"/>
<path d="M-100.45 -138.04C-137.908 -108.882 -153.821 -83.6431 -149.129 -60.8358C-138.755 -10.5093 -28.8672 18.1084 87.4809 48.4144C212.114 80.8834 341.01 114.466 354.383 177.112C361.054 208.332 338.819 243.92 286.422 285.907C232.067 329.451 209.646 356.267 215.808 370.29C224.635 390.328 291.95 379.903 369.896 367.836C470.77 352.221 596.317 332.77 621.108 378.865C638.005 410.273 608.283 467.315 530.236 553.269C487.365 600.502 457.983 641.274 442.941 674.486C429.255 704.711 427.006 729.593 436.286 748.47C466.576 810.162 613.344 798.535 720.524 790.025C782.239 785.126 835.551 780.897 839.818 793.699C842.476 801.651 826.545 816.424 791.126 838.874L791.907 840.109C828.477 816.927 844.139 802.04 841.211 793.231C836.576 779.361 787.865 783.227 720.428 788.574C613.673 797.041 467.47 808.634 437.616 747.814C418.525 708.905 450.056 643.782 531.332 554.232C609.845 467.762 639.63 410.166 622.4 378.142C597.109 331.144 476.28 349.85 369.667 366.35C292.317 378.319 225.521 388.67 217.158 369.668C211.371 356.53 234.337 329.49 287.351 287.012C340.223 244.638 362.623 208.595 355.828 176.773C342.254 113.231 212.932 79.5347 87.8728 46.9516C-28.023 16.7668 -137.478 -11.7636 -147.667 -61.1853C-152.236 -83.3895 -136.488 -108.174 -99.5298 -136.953L-100.419 -138.103L-100.45 -138.04Z" fill="white" fill-opacity="0.5"/>
<path d="M-115.315 -142.777C-151.559 -114.748 -167.055 -90.1092 -162.624 -67.4432C-152.63 -16.1779 -41.5644 14.9073 76.0221 47.8256C202.108 83.1208 332.487 119.624 345.434 183.595C351.73 214.671 330.133 249.419 279.438 289.839C226.303 332.184 204.404 358.542 210.483 372.77C219.26 393.308 286.514 384.177 364.375 373.599C465.223 359.887 590.723 342.846 615.767 390.234C632.642 422.149 603.998 478.568 528.214 562.677C486.67 608.784 458.256 648.817 443.801 681.644C430.628 711.552 428.631 736.4 437.83 755.527C468.344 818.932 615.465 810.136 722.893 803.732C784.655 800.042 837.987 796.858 842.175 809.953C844.734 818.007 829.123 832.438 794.416 854.095L795.196 855.33C831.048 832.968 846.424 818.403 843.578 809.502C839.055 795.32 790.303 798.22 722.814 802.271C615.804 808.659 469.238 817.404 439.153 754.898C420.177 715.45 450.499 651.114 529.293 563.65C605.544 479.025 634.242 422.079 617.051 389.537C591.535 341.254 470.734 357.672 364.165 372.146C286.894 382.654 220.142 391.72 211.818 372.201C206.105 358.841 228.516 332.278 280.327 290.989C331.506 250.2 353.258 214.981 346.847 183.319C333.709 118.469 202.904 81.8519 76.3829 46.4258C-40.7514 13.6287 -151.391 -17.3426 -161.21 -67.72C-165.517 -89.7829 -150.213 -113.974 -114.443 -141.617L-115.332 -142.767L-115.315 -142.777Z" fill="white" fill-opacity="0.5"/>
<path d="M-130.29 -147.856C-165.37 -120.926 -180.404 -96.8907 -176.271 -74.39C-166.667 -22.2029 -54.3683 11.4077 64.5292 46.9861C192.122 85.1653 324.068 124.653 336.595 189.924C342.531 220.803 321.556 254.72 272.513 293.601C220.58 334.758 199.203 360.657 205.181 375.1C213.92 396.156 281.129 388.31 358.958 379.233C459.827 367.465 585.374 352.803 610.662 401.511C627.498 433.943 599.925 489.722 526.368 572.005C486.128 617.022 458.688 656.29 444.805 688.743C432.135 718.315 430.355 743.15 439.489 762.516C470.222 827.661 617.805 821.769 725.559 817.447C787.394 814.974 840.788 812.833 844.873 826.256C847.351 834.403 832.026 848.512 798.03 869.376L798.794 870.621C833.934 849.051 849.007 834.818 846.27 825.832C841.858 811.338 793.059 813.299 725.507 815.993C618.161 820.282 471.135 826.167 440.812 761.887C421.972 721.934 451.129 658.383 527.464 572.968C601.47 490.179 629.116 433.863 611.956 400.831C586.212 351.218 465.386 365.335 358.792 377.778C281.552 386.784 214.838 394.592 206.526 374.549C200.897 360.982 222.769 334.888 273.412 294.769C322.939 255.518 344.061 221.156 338.029 189.681C325.336 123.539 192.955 83.9204 64.9361 45.6271C-53.5261 10.1796 -165.389 -23.3002 -174.845 -74.6064C-178.881 -96.5111 -164.028 -120.082 -129.415 -146.653L-130.304 -147.803L-130.29 -147.856Z" fill="white" fill-opacity="0.5"/>
<path d="M-145.315 -153.232C-179.238 -127.374 -193.855 -103.94 -189.996 -81.6407C-180.791 -28.5487 -67.196 7.61844 53.0683 45.9147C182.252 87.0428 315.829 129.59 327.917 196.126C333.483 226.792 313.137 259.851 265.722 297.23C214.974 337.208 194.102 362.658 199.987 377.29C208.671 398.872 275.887 392.325 353.727 384.749C454.695 374.903 580.344 362.677 605.863 412.757C622.651 445.689 596.12 500.822 524.767 581.315C450.433 665.171 422.335 728.492 441.291 769.502C472.237 836.458 620.369 833.463 728.521 831.272C793.008 829.965 843.939 828.932 847.902 842.65C850.289 850.872 835.25 864.658 801.948 884.739L802.678 886.004C837.124 865.218 851.938 851.314 849.309 842.243C845.036 827.444 796.153 828.442 728.486 829.808C620.734 831.993 473.16 834.981 442.624 768.89C423.928 728.448 451.937 665.673 525.863 582.278C597.648 501.288 624.252 445.62 607.157 412.078C581.192 361.108 460.262 372.902 353.578 383.283C276.337 390.807 209.615 397.315 201.332 376.738C195.796 362.983 217.163 337.338 266.618 298.354C314.5 260.615 335.027 227.092 329.358 195.856C317.13 128.457 183.118 85.7783 53.5161 44.5097C-66.313 6.34421 -179.489 -29.6823 -188.556 -81.9104C-192.328 -103.63 -177.883 -126.583 -144.436 -152.098L-145.325 -153.249L-145.315 -153.232Z" fill="white" fill-opacity="0.5"/>
<path d="M-160.415 -158.919C-193.206 -134.097 -207.425 -111.297 -203.822 -89.2094C-195.052 -35.2365 -80.0962 3.56153 41.6077 44.6238C172.463 88.7655 307.772 134.428 319.368 202.214C324.577 232.614 304.827 264.835 258.99 300.741C209.42 339.566 189.026 364.56 194.801 379.391C203.412 401.509 270.664 396.269 348.559 390.189C449.67 382.306 575.516 372.484 601.259 423.964C617.971 457.39 592.476 511.902 523.301 590.598C451.368 672.46 424.408 734.989 443.173 776.447C474.325 845.24 623.079 845.191 731.692 845.161C796.318 845.146 847.362 845.126 851.213 859.157C853.491 867.464 838.745 880.901 806.141 900.242L806.871 901.507C840.605 881.513 855.15 867.922 852.629 858.767C848.495 843.663 799.492 843.673 731.7 843.695C623.471 843.728 475.258 843.779 444.506 775.835C425.992 734.929 452.879 672.937 524.387 591.544C593.985 512.334 619.563 457.303 602.552 423.285C576.364 370.916 455.276 380.373 348.427 388.714C271.13 394.741 204.357 399.952 196.146 378.839C190.721 364.886 211.565 339.699 259.859 301.858C306.146 265.602 326.078 232.916 320.782 201.937C309.037 133.271 173.303 87.4941 42.0458 43.2021C-79.23 2.29727 -193.768 -36.3603 -202.415 -89.4597C-205.904 -110.961 -191.893 -133.303 -159.57 -157.766L-160.442 -158.926L-160.415 -158.919Z" fill="white" fill-opacity="0.5"/>
<path d="M-175.605 -164.92C-207.296 -141.115 -221.107 -118.933 -217.781 -97.0901C-209.43 -42.2458 -93.0591 -0.802419 30.1401 43.0835C162.734 90.3134 299.829 139.148 310.95 208.175C315.784 238.275 296.628 269.657 252.362 304.117C203.953 341.8 184.038 366.338 189.703 381.367C198.234 404.049 265.581 400.102 343.55 395.553C444.876 389.637 570.991 382.268 596.96 435.191C613.605 469.083 589.101 522.977 522.08 599.913C452.504 679.784 426.667 741.531 445.231 783.419C476.575 854.102 626.066 857.044 735.228 859.171C800.035 860.445 851.219 861.446 854.932 875.782C857.109 884.147 842.632 897.271 810.705 915.839L811.435 917.104C844.465 897.876 858.734 884.625 856.357 875.408C852.362 859.999 803.238 859.023 735.269 857.686C626.509 855.552 477.551 852.639 446.58 782.797C428.251 741.47 454.033 680.251 523.2 600.84C590.654 523.407 615.213 468.986 598.28 434.519C571.875 380.723 450.54 387.805 343.478 394.066C266.074 398.581 199.239 402.479 191.101 380.83C185.785 366.678 206.118 341.967 253.301 305.239C298.035 270.419 317.381 238.589 312.444 207.92C301.193 138.046 163.67 89.0533 30.6845 41.6901C-92.1132 -2.04556 -208.092 -43.3553 -216.304 -97.3357C-219.543 -118.599 -205.923 -140.334 -174.699 -163.779L-175.571 -164.939L-175.605 -164.92Z" fill="white" fill-opacity="0.5"/>
<path d="M-190.929 -171.231C-221.555 -148.423 -234.949 -126.842 -231.892 -105.271C-224.006 -49.5963 -106.138 -5.44276 18.6394 41.3316C153.044 91.6975 292.027 143.804 302.628 214.03C307.119 243.811 288.532 274.348 245.786 307.391C198.522 343.941 179.085 368.022 184.613 383.243C193.055 406.471 260.516 403.852 338.63 400.838C440.223 396.903 566.687 392.008 592.885 446.418C609.435 480.768 585.931 534.018 521.039 609.23C453.814 687.137 429.028 748.097 447.389 790.372C478.928 862.989 629.237 868.943 738.985 873.294C804.001 875.864 855.361 877.91 858.935 892.55C860.994 900.984 846.796 913.812 815.53 931.617L816.26 932.881C848.636 914.391 862.612 901.489 860.354 892.204C856.514 876.48 807.236 874.536 739.037 871.826C629.655 867.488 479.88 861.562 448.715 789.787C430.605 748.063 455.292 687.633 522.125 610.177C587.433 534.478 611.019 480.708 594.198 445.772C567.591 390.497 445.922 395.209 338.568 399.367C261.029 402.364 194.072 404.962 185.987 382.742C180.775 368.418 200.645 344.154 246.684 308.558C289.898 275.156 308.649 244.164 304.08 213.821C293.351 142.747 153.949 90.5006 19.1598 39.9745C-105.206 -6.63259 -222.665 -50.6625 -230.43 -105.463C-233.399 -126.455 -220.197 -147.589 -190.038 -170.037L-190.91 -171.197L-190.929 -171.231Z" fill="white" fill-opacity="0.5"/>
<path d="M-206.317 -177.878C-235.885 -156.041 -248.897 -135.085 -246.093 -113.795C-238.664 -57.3167 -119.25 -10.3688 7.16758 39.3252C143.458 92.9188 284.383 148.31 294.469 219.71C298.607 249.111 280.571 278.812 239.33 310.491C193.837 345.435 174.285 369.785 179.601 384.948C187.946 408.749 255.549 407.465 333.851 405.984C435.79 404.052 562.64 401.654 589.069 457.594C605.505 492.37 582.95 545.005 520.171 618.502C455.246 694.475 431.529 754.637 449.649 797.276C481.368 871.879 632.611 880.892 743.053 887.495C808.314 891.385 859.867 894.466 863.295 909.438C865.243 917.913 851.328 930.376 820.701 947.496L821.432 948.761C853.114 931.053 866.854 918.444 864.724 909.108C861.049 893.087 811.588 890.124 743.141 886.051C633.086 879.494 482.367 870.493 450.994 796.725C433.098 754.63 456.743 695.004 521.267 619.466C584.471 545.498 607.082 492.337 590.385 456.992C563.556 400.204 441.507 402.505 333.818 404.564C256.09 406.028 188.959 407.31 180.987 384.508C175.904 370.019 195.287 346.194 240.222 311.685C281.93 279.647 300.149 249.524 295.925 219.545C285.736 147.304 144.399 91.7457 7.72427 37.9921C-118.292 -11.5515 -237.295 -58.3323 -244.611 -113.954C-247.328 -134.664 -234.507 -155.173 -205.416 -176.668L-206.281 -177.854L-206.317 -177.878Z" fill="white" fill-opacity="0.5"/>
<path d="M-221.834 -184.83C-250.377 -163.944 -263.015 -143.586 -260.466 -122.621C-253.514 -65.3729 -132.491 -15.5994 -4.38432 37.0985C133.865 93.9676 276.826 152.769 286.352 225.303C290.169 254.303 272.659 283.162 232.873 313.506C188.483 347.363 169.41 371.257 174.569 386.578C182.792 410.944 250.598 411.026 329.124 411.102C431.447 411.197 558.816 411.332 585.459 468.812C601.772 503.997 580.165 556.016 519.438 627.812C456.79 701.886 434.088 761.237 451.993 804.203C483.902 880.81 636.17 892.962 747.332 901.825C812.875 907.058 864.647 911.182 867.91 926.451C869.73 934.978 856.048 947.104 826.101 963.494L826.798 964.778C857.833 947.781 871.341 935.509 869.331 926.148C865.839 909.819 816.178 905.848 747.437 900.371C636.625 891.53 484.883 879.434 453.328 803.635C435.665 761.203 458.284 702.372 520.541 628.749C581.667 556.476 603.322 503.956 586.765 468.193C559.739 409.855 437.213 409.734 329.106 409.629C251.138 409.546 183.821 409.496 175.936 386.104C170.993 371.467 189.914 348.089 233.745 314.667C274.008 283.98 291.675 254.692 287.788 225.103C278.159 151.73 134.787 92.7609 -3.84704 35.7317C-131.56 -16.7892 -252.181 -66.4125 -259.047 -122.811C-261.519 -143.214 -249.088 -163.115 -221.005 -183.667L-221.87 -184.854L-221.834 -184.83Z" fill="white" fill-opacity="0.5"/>
<path d="M-237.463 -192.112C-265.005 -172.141 -277.279 -152.398 -274.968 -131.768C-268.497 -73.7927 -145.826 -21.1262 -15.9302 34.6306C124.369 94.857 269.44 157.117 278.414 230.756C281.9 259.341 264.932 287.347 226.534 316.396C183.23 349.175 164.609 372.606 169.619 388.058C177.712 413.017 245.756 414.445 324.55 416.075C427.346 418.235 555.276 420.901 582.129 479.99C598.292 515.577 577.641 566.955 518.942 637.084C458.526 709.262 436.84 767.802 454.483 811.055C486.567 889.718 639.942 905.031 751.933 916.226C817.8 922.801 869.828 927.99 872.909 943.567C874.609 952.118 861.196 963.931 831.878 979.621L832.575 980.905C862.93 964.638 876.222 952.693 874.366 943.288C871.056 926.652 821.152 921.675 752.107 914.776C640.486 903.638 487.612 888.373 455.854 810.51C438.436 767.803 460.047 709.756 520.089 638.019C579.169 567.421 599.912 515.541 583.472 479.395C556.245 419.465 433.179 416.89 324.584 414.616C246.348 412.979 178.785 411.565 171.013 387.591C166.226 372.797 184.678 349.891 227.423 317.546C266.254 288.158 283.413 259.703 279.859 230.574C270.793 156.111 125.318 93.6573 -15.3398 33.2779C-144.824 -22.3117 -267.127 -74.8082 -273.496 -131.943C-275.73 -152.011 -263.664 -171.297 -236.581 -190.935L-237.446 -192.122L-237.463 -192.112Z" fill="white" fill-opacity="0.5"/>
<path d="M-253.224 -199.723C-279.79 -180.63 -291.7 -161.502 -289.636 -141.223C-283.664 -82.5553 -159.246 -26.9408 -27.5327 31.9256C114.873 95.567 262.138 161.394 270.52 236.072C273.673 264.196 257.23 291.36 220.222 319.156C177.989 350.869 159.813 373.863 164.647 389.439C172.583 414.982 240.928 417.789 320.035 421.013C423.357 425.252 551.948 430.504 579.005 491.23C595.014 527.175 575.269 577.94 518.589 646.387C460.364 716.715 439.667 774.437 457.038 817.959C489.301 898.722 643.89 917.268 756.754 930.792C822.982 938.732 875.276 945.005 878.191 960.879C879.77 969.455 866.58 980.915 837.902 995.921L838.582 997.214C868.334 981.655 881.357 970.023 879.632 960.61C876.531 943.673 826.363 937.656 756.945 929.332C644.432 915.831 490.336 897.36 458.4 817.397C441.237 774.43 461.859 717.201 519.709 647.314C576.761 578.382 596.591 527.141 580.321 490.628C552.901 429.078 429.205 424.011 320.07 419.554C241.503 416.332 173.648 413.558 166.017 389.008C161.379 374.083 179.386 351.614 221.061 320.336C258.512 292.217 275.146 264.605 271.915 235.918C263.431 160.401 115.781 94.4134 -26.9929 30.6023C-158.312 -28.0871 -282.362 -83.532 -288.241 -141.377C-290.244 -161.083 -278.535 -179.781 -252.429 -198.54L-253.277 -199.737L-253.224 -199.723Z" fill="white" fill-opacity="0.5"/>
<path d="M-269.109 -207.672C-294.733 -189.439 -306.295 -170.916 -304.455 -151.025C-298.992 -91.6812 -172.781 -33.0776 -39.1577 28.98C105.43 96.1278 254.962 165.569 262.759 241.259C265.603 268.888 249.662 295.245 214.017 321.782C172.847 352.454 155.106 374.994 159.781 390.684C167.569 416.83 236.215 421.014 315.69 425.847C419.601 432.197 548.925 440.083 576.195 502.462C592.058 538.738 573.182 588.866 518.489 655.694C462.44 724.182 442.688 781.088 459.792 824.809C492.226 907.699 648.129 929.534 761.974 945.458C828.573 954.78 881.186 962.15 883.9 978.299C885.331 986.892 872.401 998.022 844.345 1012.35L845.008 1013.66C874.097 998.818 886.921 987.503 885.343 978.073C882.46 960.853 832.003 953.789 762.175 944.015C648.69 928.13 493.28 906.371 461.156 824.291C444.25 781.108 463.927 724.695 519.619 656.638C574.676 589.352 593.628 538.731 577.53 501.893C565.204 473.691 532.047 454.032 476.169 441.824C427.602 431.219 368.2 427.588 315.768 424.386C236.844 419.571 168.679 415.403 161.167 390.244C156.688 375.204 174.26 353.189 214.88 322.925C250.974 296.039 267.117 269.251 264.204 241.077C256.315 164.564 106.415 94.9522 -38.5504 27.6177C-171.779 -34.263 -297.622 -92.6967 -303 -151.191C-304.789 -170.527 -293.41 -188.629 -268.264 -206.519L-269.112 -207.716L-269.109 -207.672Z" fill="white" fill-opacity="0.5"/>
<path d="M-285.131 -215.944C-309.828 -198.56 -321.05 -180.616 -319.435 -161.113C-314.492 -101.153 -186.423 -39.4861 -50.8337 25.8205C96.0282 96.5565 247.892 169.687 255.092 246.329C257.645 273.452 242.184 298.969 207.849 324.346C167.724 353.986 150.391 376.066 154.898 391.854C162.513 418.594 231.522 424.186 311.4 430.653C415.97 439.118 546.102 449.685 573.579 513.788C589.27 550.388 571.262 599.88 518.531 665.081C464.615 731.775 445.789 787.832 462.607 831.718C495.215 916.778 652.521 941.939 767.394 960.305C834.417 971.024 887.375 979.498 889.88 995.947C891.198 1004.54 878.483 1015.34 851.034 1029.01L851.679 1030.32C880.163 1016.15 892.754 1005.17 891.316 995.748C888.652 978.244 837.878 970.127 767.631 958.887C653.119 940.56 496.289 915.484 463.981 831.217C447.352 787.851 466.093 732.271 519.677 666.015C572.791 600.347 590.856 550.372 574.941 513.226C562.534 484.261 529.16 463.603 472.917 450.101C424.045 438.345 364.256 433.499 311.524 429.232C232.18 422.795 163.644 417.244 156.297 391.473C151.986 376.336 169.123 354.775 208.714 325.532C243.025 300.192 259.113 273.503 256.55 246.207C249.274 168.732 97.0325 95.4145 -50.1971 24.5089C-185.399 -40.5943 -313.101 -102.091 -317.967 -161.218C-319.531 -180.166 -308.51 -197.68 -284.273 -214.731L-285.121 -215.927L-285.131 -215.944Z" fill="white" fill-opacity="0.5"/>
<path d="M-301.302 -224.546C-325.097 -207.975 -335.988 -190.626 -334.597 -171.511C-330.178 -110.979 -200.184 -46.1742 -62.5667 22.4125C86.6417 96.7845 240.923 173.713 247.523 251.263C249.791 277.853 234.805 302.557 201.751 326.766C162.656 355.385 145.741 377.021 150.069 392.89C157.511 420.225 226.894 427.243 307.238 435.373C412.532 446.028 543.557 459.272 571.235 525.124C586.751 562.006 569.586 610.854 518.775 674.474C466.933 739.386 449.026 794.62 465.571 838.619C498.353 925.849 657.164 954.435 773.12 975.301C840.604 987.439 893.917 997.035 896.204 1013.77C897.382 1022.35 884.893 1032.84 858.048 1045.85L858.694 1047.16C886.582 1033.67 898.947 1023 897.666 1013.58C895.23 995.805 844.121 986.6 773.401 973.879C657.789 953.063 499.446 924.589 466.945 838.118C450.605 794.63 468.427 739.872 519.921 675.409C571.098 611.33 588.321 561.999 572.59 524.589C560.093 494.845 526.475 473.181 469.854 458.323C420.624 445.402 360.466 439.331 307.388 433.96C227.571 425.885 158.662 418.908 151.488 392.543C147.356 377.326 164.074 356.207 202.636 327.986C235.673 303.787 251.288 277.955 249.01 251.191C242.361 172.815 87.685 95.71 -61.8744 21.1585C-199.107 -47.2681 -328.74 -111.877 -333.099 -171.566C-334.457 -190.116 -323.767 -207.035 -300.431 -223.273L-301.263 -224.479L-301.302 -224.546Z" fill="white" fill-opacity="0.5"/>
<path d="M-317.6 -233.525C-340.216 -217.949 -351.079 -200.707 -349.903 -182.276C-346.011 -121.215 -214.037 -53.2147 -74.3061 18.7604C77.3073 96.8696 234.096 177.634 240.05 256.051C242.04 282.082 227.529 305.973 195.689 329.054C157.615 356.678 141.11 377.853 145.223 393.778C152.457 421.728 222.293 430.193 303.13 439.995C409.202 452.853 541.213 468.855 569.102 536.474C584.423 573.603 568.084 621.817 519.165 683.85C469.373 747.016 452.366 801.394 468.602 845.481C501.57 934.942 661.986 967.008 779.132 990.401C847.112 1003.98 900.807 1014.71 902.865 1031.71C903.91 1040.25 891.664 1050.43 865.391 1062.79L866.02 1064.11C893.286 1051.29 905.469 1040.93 904.321 1031.54C902.113 1013.51 850.651 1003.22 779.423 988.997C662.62 965.653 502.647 933.691 469.986 844.997C453.928 801.414 470.878 747.519 520.329 684.774C569.602 622.267 586.01 573.586 570.473 535.93C557.886 505.406 524.032 482.709 466.98 466.481C417.382 452.379 356.798 445.025 303.331 438.552C223.021 428.806 153.651 420.409 146.658 393.422C142.697 378.151 159.024 357.483 196.554 330.24C228.367 307.152 243.501 282.16 241.508 255.929C235.47 176.705 78.3213 95.7445 -73.6431 17.4558C-212.997 -54.3326 -344.61 -122.137 -348.452 -182.372C-349.61 -200.498 -339.243 -216.847 -316.785 -232.309L-317.617 -233.515L-317.6 -233.525Z" fill="white" fill-opacity="0.5"/>
<path d="M-334.069 -242.812C-355.842 -227.993 -366.4 -211.353 -365.398 -193.34C-362.035 -131.794 -228.018 -60.5663 -86.1343 14.8646C67.9762 96.7928 227.347 181.484 232.677 260.689C234.389 286.161 220.342 309.221 189.713 331.244C152.644 357.884 136.53 378.608 140.463 394.57C147.489 423.134 217.788 433.062 299.171 444.55C406.094 459.66 539.153 478.452 567.255 547.881C582.362 585.223 566.839 632.787 519.8 693.285C472.024 754.725 455.872 808.249 471.814 852.371C504.951 944.072 667.081 979.69 785.455 1005.68C853.968 1020.73 908.065 1032.62 909.902 1049.86C910.797 1058.38 898.766 1068.22 873.076 1079.95L873.688 1081.29C900.381 1069.11 912.348 1059.08 911.35 1049.72C909.407 1031.44 857.546 1020.04 785.763 1004.26C667.715 978.335 506.045 942.812 473.171 851.879C457.408 808.261 473.475 755.214 520.927 694.185C568.34 633.246 583.922 585.199 568.583 547.339C540.163 477.126 406.638 458.266 299.356 443.117C218.482 431.695 148.65 421.834 141.864 394.233C138.091 378.898 154.01 358.692 190.551 332.424C221.19 310.418 235.85 286.239 234.111 260.603C228.714 180.582 69 95.6845 -85.4784 13.5866C-226.992 -61.6311 -360.657 -132.679 -363.971 -193.4C-364.928 -211.102 -354.892 -226.855 -333.272 -241.586L-334.103 -242.792L-334.069 -242.812Z" fill="white" fill-opacity="0.5"/>
<path d="M-350.706 -252.452C-371.684 -238.361 -381.903 -222.3 -381.11 -204.728C-378.288 -142.757 -242.17 -68.2011 -98.0444 10.7239C58.6456 96.5358 220.657 185.256 225.359 265.205C226.797 289.734 212.803 312.651 183.749 333.314C147.652 358.989 131.929 379.262 135.671 395.244C142.481 424.405 213.279 435.822 295.264 449.053C403.1 466.445 537.289 488.092 565.615 559.348C580.532 596.867 565.798 643.773 520.561 702.758C474.75 762.502 459.445 815.155 475.089 859.269C508.406 953.227 672.332 992.462 792.043 1021.12C861.116 1037.64 915.667 1050.71 917.266 1068.2C918.028 1076.68 906.214 1086.2 881.078 1097.3L881.673 1098.64C907.785 1087.09 919.57 1077.37 918.714 1068.06C917.026 1049.52 864.75 1037.01 792.385 1019.68C673.009 991.104 509.526 951.974 476.481 858.758C461.014 815.148 476.242 762.944 521.738 703.629C567.307 644.206 582.109 596.834 566.987 558.803C538.353 486.78 403.714 465.056 295.509 447.607C214.043 434.459 143.678 423.13 137.099 394.914C133.517 379.559 149.061 359.794 184.614 334.501C214.094 313.524 228.289 290.177 226.837 265.116C222.094 184.358 59.7227 95.4419 -97.3183 9.45054C-241.084 -69.278 -376.858 -143.628 -379.639 -204.79C-380.431 -222.048 -370.701 -237.243 -349.891 -251.236L-350.706 -252.452Z" fill="white" fill-opacity="0.5"/>
<path d="M-367.495 -262.449C-387.687 -249.061 -397.608 -233.575 -396.982 -216.447C-394.721 -154.084 -256.412 -76.1622 -109.969 6.34831C49.3661 96.1186 214.11 188.949 218.164 269.565C219.364 293.489 205.811 315.612 177.883 335.266C142.767 359.991 127.409 379.806 130.943 395.818C137.509 425.57 208.87 438.505 291.51 453.494C400.305 473.21 535.725 497.766 564.266 570.876C578.974 608.539 565.012 654.796 521.567 712.252C477.671 770.328 463.195 822.12 478.54 866.182C512.055 962.431 677.886 1005.35 798.981 1036.72C868.633 1054.75 923.665 1069 924.99 1086.72C925.626 1095.14 914.001 1104.32 889.432 1114.84L890.001 1116.18C915.208 1105.4 927.119 1095.74 926.431 1086.6C925.017 1067.84 872.289 1054.2 799.316 1035.31C678.549 1004.05 513.151 961.214 479.89 865.717C464.714 822.142 479.122 770.817 522.711 713.143C566.477 655.231 580.5 608.534 565.604 570.351C536.772 496.464 400.912 471.848 291.747 452.075C209.637 437.186 138.709 424.338 132.348 395.525C128.956 380.15 144.108 360.835 178.697 336.481C207.068 316.505 220.815 293.977 219.591 269.505C215.497 188.08 50.3925 95.0538 -109.277 5.09427C-255.333 -77.2126 -393.298 -154.929 -395.535 -216.472C-396.144 -233.297 -386.711 -247.915 -366.704 -261.197L-367.519 -262.413L-367.495 -262.449Z" fill="white" fill-opacity="0.5"/>
<path d="M-384.473 -272.814C-403.902 -260.091 -413.527 -245.182 -413.076 -228.513C-411.362 -165.813 -270.814 -84.4402 -122.007 1.69663C40.0484 95.5166 207.617 192.539 211.026 273.752C211.99 297.071 198.885 318.373 172.034 337.09C137.882 360.877 122.89 380.234 126.214 396.232C132.519 426.584 204.478 441.062 287.8 457.815C397.654 479.91 534.366 507.407 563.126 582.414C577.615 620.203 564.406 665.778 522.722 721.768C480.7 778.223 467.027 829.146 482.06 873.096C515.774 971.636 683.611 1018.35 806.146 1052.48C876.44 1072.05 931.962 1087.5 933.03 1105.43C933.54 1113.79 922.097 1122.67 898.093 1132.57L898.645 1133.92C923.321 1123.74 935.033 1114.39 934.481 1105.34C933.351 1086.36 880.152 1071.55 806.524 1051.07C684.291 1017.03 516.896 970.426 483.427 872.622C468.553 829.142 482.159 778.685 523.873 722.632C565.871 666.214 579.148 620.172 564.464 581.889C535.406 506.132 398.261 478.548 288.071 456.377C205.252 439.716 133.752 425.332 127.625 395.912C124.434 380.534 139.221 361.677 172.846 338.262C200.132 319.249 213.465 297.523 212.46 273.665C209.028 191.634 41.0988 94.4156 -121.291 0.406214C-269.727 -85.5173 -409.941 -166.701 -411.632 -228.583C-412.082 -244.937 -402.948 -259.023 -383.695 -271.623L-384.492 -272.848L-384.473 -272.814Z" fill="white" fill-opacity="0.5"/>
<path d="M-401.591 -283.538C-420.292 -271.46 -429.62 -257.127 -429.308 -240.896C-428.127 -177.91 -285.293 -93.0459 -134.065 -3.18163C30.8034 94.7699 201.262 196.058 204.007 277.834C204.768 300.529 192.07 321.056 166.271 338.829C133.059 361.713 118.438 380.586 121.552 396.571C127.597 427.523 200.181 443.551 284.24 462.126C395.199 486.641 533.287 517.143 562.292 594.054C576.361 631.389 563.528 677.578 524.137 731.345C483.955 786.198 471.048 836.23 485.803 880.048C519.732 980.869 689.651 1031.46 813.725 1068.41C884.687 1089.53 940.72 1106.22 941.53 1124.36C941.905 1132.64 930.661 1141.2 907.181 1150.53L907.716 1151.89C931.851 1142.29 943.391 1133.27 942.991 1124.28C942.128 1105.11 888.458 1089.13 814.146 1067C690.375 1030.14 520.891 979.683 487.187 879.564C472.591 836.216 485.42 786.633 525.312 732.173C565.565 677.212 578.116 631.859 563.654 593.493C534.377 515.838 395.857 485.25 284.562 460.659C201.015 442.192 128.847 426.261 122.99 396.258C120.002 380.919 134.424 362.521 167.109 340.009C193.344 321.939 206.253 300.998 205.485 277.745C202.71 195.177 31.907 93.683 -133.305 -4.47462C-284.18 -94.1159 -426.68 -178.791 -427.838 -240.958C-428.138 -256.859 -419.278 -270.405 -400.787 -282.339L-401.584 -283.565L-401.591 -283.538Z" fill="white" fill-opacity="0.5"/>
<path d="M-418.936 -294.638C-436.924 -283.196 -445.969 -269.386 -445.817 -253.624C-445.197 -190.405 -299.986 -101.967 -146.236 -8.32046C21.5098 93.8371 194.951 199.473 197.027 281.726C197.584 303.796 185.293 323.549 160.504 340.424C128.206 362.398 113.934 380.823 116.845 396.767C122.602 428.312 195.884 445.938 280.717 466.36C392.853 493.342 532.382 526.924 561.616 605.749C575.477 643.114 563.371 688.614 525.649 740.99C487.257 794.27 475.126 843.427 489.573 887.063C523.737 990.199 695.847 1044.74 821.516 1084.57C893.166 1107.27 949.762 1125.2 950.286 1143.52C950.515 1151.7 939.48 1159.96 916.507 1168.73L917.025 1170.09C940.637 1161.07 952.004 1152.37 951.739 1143.46C951.18 1124.12 896.975 1106.94 821.947 1083.17C696.564 1043.45 524.862 989.032 490.95 886.605C476.652 843.422 488.715 794.732 526.833 741.835C564.863 689.057 577.037 643.09 562.98 605.231C533.475 525.663 393.514 491.994 281.042 464.936C196.704 444.633 123.865 427.111 118.268 396.507C115.484 381.209 129.558 363.259 161.319 341.64C186.543 324.468 199.045 304.301 198.474 281.7C196.367 198.656 22.5823 92.8133 -145.491 -9.56012C-298.887 -102.984 -443.764 -191.232 -444.378 -253.624C-444.529 -269.071 -435.958 -282.068 -418.172 -293.393L-418.952 -294.629L-418.936 -294.638Z" fill="white" fill-opacity="0.5"/>
<path d="M-436.481 -306.095C-453.781 -295.252 -462.563 -281.999 -462.543 -266.7C-462.471 -203.299 -314.826 -111.231 -158.49 -13.727C12.2096 92.728 188.718 202.821 190.146 285.47C190.517 306.905 178.626 325.91 154.814 341.907C123.449 363.005 109.498 380.974 112.203 396.835C117.681 428.946 191.653 448.197 277.323 470.496C390.692 500.004 531.778 536.711 561.259 617.484C574.903 654.862 563.514 699.656 527.418 750.643C490.775 802.397 479.374 850.637 493.538 894.055C527.927 999.489 702.33 1058.08 829.676 1100.85C902.05 1125.16 959.229 1144.37 959.483 1162.84C959.594 1170.94 948.731 1178.87 926.275 1187.1L926.776 1188.47C949.881 1180.01 961.065 1171.62 960.939 1162.83C960.666 1143.32 905.918 1124.93 830.133 1099.46C703.073 1056.79 529.072 998.356 494.915 893.597C480.91 850.649 492.24 802.832 528.593 751.471C564.996 700.082 576.437 654.831 562.624 616.966C532.881 535.467 391.379 498.663 277.691 469.07C192.5 446.899 118.953 427.762 113.627 396.575C111.038 381.344 124.764 363.842 155.619 343.106C179.867 326.813 191.968 307.394 191.6 285.417C190.175 201.957 13.3061 91.6679 -157.72 -15.003C-313.693 -112.267 -461.004 -204.146 -461.08 -266.736C-461.089 -281.703 -452.794 -294.204 -435.702 -304.903L-436.483 -306.138L-436.481 -306.095Z" fill="white" fill-opacity="0.5"/>
<path d="M-454.191 -317.917C-470.837 -307.654 -479.337 -294.923 -479.466 -280.078C-479.954 -216.556 -329.8 -120.766 -170.821 -19.347C2.92351 91.4872 182.565 206.111 183.316 289.106C183.501 309.907 172.01 328.164 149.133 343.328C118.641 363.563 105.045 381.057 107.528 396.844C112.682 429.524 187.425 450.421 273.977 474.638C388.643 506.703 531.351 546.609 561.09 629.347C574.514 666.694 563.824 710.792 529.321 760.411C494.376 810.666 483.681 858.027 497.559 901.182C532.2 1008.92 709.005 1071.63 838.083 1117.41C911.219 1143.35 969.007 1163.85 968.974 1182.48C968.957 1190.47 958.276 1198.1 936.32 1205.79L936.804 1207.17C959.408 1199.24 970.421 1191.18 970.44 1182.49C970.48 1162.82 915.152 1143.19 838.577 1116.04C709.774 1070.36 533.381 1007.81 498.945 900.742C485.217 858.039 495.825 811.111 530.506 761.255C565.306 711.218 576.04 666.69 562.457 628.872C532.45 545.435 389.342 505.422 274.365 473.246C188.301 449.173 113.984 428.39 108.964 396.645C106.571 381.48 119.968 364.46 149.924 344.58C173.226 329.103 184.938 310.449 184.765 289.123C184.001 205.327 4.01552 90.497 -170.056 -20.5531C-328.681 -121.749 -478.508 -217.324 -478.024 -280.034C-477.917 -294.529 -469.878 -306.499 -453.451 -316.635L-454.215 -317.88L-454.191 -317.917Z" fill="white" fill-opacity="0.5"/>
<path d="M-472.156 -330.123C-488.172 -320.404 -496.415 -308.203 -496.65 -293.814C-497.683 -230.225 -344.965 -130.654 -183.278 -25.2459C-6.41289 90.0589 176.471 209.285 176.549 292.556C176.564 312.713 165.456 330.232 143.501 344.617C113.891 364.005 100.601 381.053 102.885 396.73C107.723 429.953 183.265 452.546 270.737 478.706C386.764 513.401 531.16 556.582 561.19 641.265C574.402 678.555 564.401 721.94 531.44 770.219C498.143 819.006 488.161 865.46 501.76 908.327C536.679 1018.38 715.952 1085.29 846.855 1134.14C920.797 1161.75 979.205 1183.56 978.883 1202.32C978.754 1210.19 968.245 1217.49 946.765 1224.68L947.223 1226.06C969.354 1218.68 980.201 1210.91 980.332 1202.33C980.678 1182.53 924.769 1161.66 847.366 1132.77C716.748 1084.02 537.858 1017.23 503.154 907.86C489.688 865.456 499.616 819.415 532.649 771.027C565.891 722.339 575.952 678.514 562.564 640.764C532.292 555.389 387.504 512.075 271.158 477.294C184.158 451.289 109.041 428.809 104.338 396.521C102.143 381.467 115.209 364.886 144.299 345.842C166.699 331.178 178.045 313.252 178.015 292.564C177.923 208.492 -5.28725 89.0492 -182.479 -26.4715C-343.813 -131.657 -496.221 -231.002 -495.201 -293.796C-494.962 -307.828 -487.198 -319.302 -471.409 -328.868L-472.173 -330.113L-472.156 -330.123Z" fill="white" fill-opacity="0.5"/>
<path d="M-490.341 -342.712C-505.743 -333.527 -513.738 -321.83 -514.088 -307.914C-515.67 -244.3 -360.331 -140.892 -195.844 -31.4123C-15.7827 88.4546 170.418 212.375 169.839 295.869C169.694 315.399 158.952 332.189 137.875 345.797C109.14 364.365 96.1615 380.941 98.2375 396.491C102.732 430.249 179.128 454.553 267.564 482.696C385.026 520.07 531.21 566.58 561.524 653.235C574.536 690.415 565.183 733.09 533.749 780.082C502.066 827.42 492.747 872.997 506.081 915.522C541.303 1027.85 723.137 1099.08 855.931 1151.09C930.706 1180.38 989.77 1203.52 989.141 1222.4C988.874 1230.16 978.557 1237.17 957.543 1243.84L957.984 1245.23C979.649 1238.36 990.314 1230.9 990.61 1222.46C991.272 1202.54 934.72 1180.4 856.478 1149.74C723.979 1097.85 542.493 1026.76 507.494 915.089C494.31 873.017 503.541 827.872 534.985 780.897C566.692 733.523 576.096 690.391 562.934 652.758C532.378 565.411 385.812 518.785 268.048 481.315C180.083 453.327 104.106 429.163 99.7268 396.306C97.7404 381.379 110.485 365.253 138.699 347.03C160.212 333.126 171.191 315.928 171.331 295.884C171.907 211.606 -14.6039 87.4592 -194.992 -32.6235C-359.125 -141.88 -514.154 -245.063 -512.576 -307.865C-512.255 -321.247 -504.497 -332.538 -489.54 -341.443L-490.271 -342.708L-490.341 -342.712Z" fill="white" fill-opacity="0.5"/>
<path d="M-508.719 -355.728C-523.542 -347.057 -531.278 -335.847 -531.718 -322.396C-533.859 -258.819 -375.791 -151.501 -208.465 -37.8829C-25.1258 86.6108 164.477 215.334 163.234 298.964C162.947 317.857 152.547 333.955 132.324 346.822C104.421 364.573 91.7738 380.71 93.6318 396.116C97.8004 430.399 175.068 456.448 264.516 486.615C383.467 526.726 531.495 576.624 562.129 665.274C574.934 702.327 566.226 744.291 536.267 789.982C506.141 835.927 497.491 880.601 510.558 922.741C546.109 1037.35 730.624 1112.99 865.354 1168.2C940.982 1199.2 1000.74 1223.69 999.817 1242.66C999.455 1250.28 989.277 1256.99 968.722 1263.17L969.146 1264.57C990.369 1258.18 1000.86 1251.05 1001.28 1242.73C1002.25 1222.73 945.062 1199.29 865.918 1166.84C731.447 1111.73 547.316 1036.25 511.971 922.307C499.044 880.603 507.623 836.353 537.51 790.771C567.733 744.681 576.484 702.286 563.53 664.78C532.673 575.471 384.254 525.441 265 485.234C176.007 455.232 99.1577 429.324 95.0873 395.951C93.2923 381.16 105.732 365.48 133.105 348.058C153.773 334.911 164.4 318.389 164.683 298.981C165.95 214.574 -23.9904 85.6181 -207.657 -39.0915C-374.646 -152.477 -532.387 -259.579 -530.276 -322.352C-529.838 -335.262 -522.35 -346.082 -507.999 -354.48L-508.729 -355.745L-508.719 -355.728Z" fill="white" fill-opacity="0.5"/>
<path d="M-527.508 -368.998C-541.655 -360.83 -549.098 -350.126 -549.647 -337.174C-552.334 -273.686 -391.498 -162.391 -221.214 -44.5456C-34.4946 84.6735 158.56 218.284 156.658 301.979C156.244 320.225 146.196 335.648 126.776 347.805C99.6987 364.764 87.3462 380.439 89.0031 395.691C92.8093 430.476 170.995 458.31 261.517 490.532C382.022 533.411 531.994 586.794 562.956 677.414C575.55 714.296 567.479 755.533 538.947 799.995C510.335 844.594 502.312 888.366 515.145 930.101C551.032 1046.97 738.337 1127.09 875.089 1185.61C951.616 1218.36 1012.06 1244.2 1010.85 1263.25C1010.37 1270.74 1000.35 1277.15 980.259 1282.84L980.666 1284.25C1001.46 1278.36 1011.78 1271.52 1012.32 1263.34C1013.61 1243.26 955.761 1218.53 875.689 1184.27C739.189 1125.88 552.259 1045.9 516.568 929.684C503.875 888.386 511.835 845.01 540.199 800.801C568.978 755.949 577.119 714.289 564.359 676.963C533.175 585.685 382.837 532.176 262.038 489.175C171.971 457.117 94.186 429.434 90.478 395.559C88.8842 380.922 101.012 365.715 127.567 349.057C147.423 336.604 157.707 320.774 158.133 302.004C160.058 217.531 -33.3325 83.6879 -220.379 -45.7471C-390.316 -163.343 -550.826 -274.422 -548.168 -337.106C-547.649 -349.523 -540.443 -359.821 -526.752 -367.726L-526.6 -367.813L-527.33 -369.078L-527.482 -368.99L-527.508 -368.998Z" fill="white" fill-opacity="0.5"/>
</g>
<defs>
<clipPath id="clip0_182_1670">
<rect width="675" height="725" fill="white"/>
</clipPath>
</defs>
</svg>
