<svg width="144" height="63" viewBox="0 0 144 63" fill="none" xmlns="http://www.w3.org/2000/svg">
<g clip-path="url(#clip0_2008_2380)">
<path d="M7.17767 30.5693C5.17625 26.1263 4.64349 22 4.54476 17.1641C3.03494 20.2228 2.58652 23.3843 3.68495 26.7187C4.27118 28.4897 5.21944 30.0283 6.35694 31.4929C7.51502 32.8381 8.7348 34.1505 10.0677 35.323C8.96929 33.7946 8.01692 32.2601 7.17562 30.5631V30.5673L7.17767 30.5693Z" fill="#CC3334"/>
<path fill-rule="evenodd" clip-rule="evenodd" d="M13.366 39.387C14.4892 40 15.7007 40.5245 16.8876 41.0099L18.5928 41.697C17.2702 40.8701 15.4374 39.4611 14.6558 38.8378C13.7281 38.0911 12.8641 37.2292 12.0578 36.353C11.8233 36.1 11.5991 35.8387 11.3749 35.5713C11.1507 35.3039 10.9347 35.0365 10.7249 34.7588C10.5151 34.4811 10.3094 34.1993 10.1099 33.9175C9.91034 33.6357 9.71904 33.3436 9.53392 33.0515C9.34879 32.7595 9.16778 32.4633 8.99705 32.1609C8.82632 31.8585 8.65971 31.552 8.49926 31.2455C8.33882 30.939 8.1866 30.6264 8.04056 30.3096C7.89452 29.9928 7.75258 29.6761 7.62094 29.3552C7.48929 29.0343 7.36176 28.7072 7.24451 28.3802C7.12315 28.0531 7.01002 27.7219 6.90717 27.3908C6.80021 27.0596 6.70147 26.7223 6.61508 26.387C6.52252 26.0496 6.43818 25.7143 6.36619 25.3729C6.28802 25.0314 6.22015 24.69 6.16049 24.3485C6.09673 24.003 6.04325 23.6615 6.00005 23.3139C5.95068 22.9683 5.9116 22.6207 5.8828 22.2751C5.84783 21.9295 5.82521 21.5778 5.80875 21.2302C5.7347 19.7903 5.80052 18.3319 5.86635 16.8838C5.88692 16.4457 5.90543 16.0096 5.92189 15.5735C5.43438 15.8018 5.09087 16.098 4.63217 16.637C4.56429 15.5344 5.25337 13.8847 5.7059 12.9056C4.66508 13.1031 3.87932 13.3767 2.74181 13.9938C5.36445 10.3426 8.76256 8.81225 12.8662 7.45671C12.3005 7.28393 11.4654 6.73883 10.9717 6.40766C11.776 6.15465 12.7407 6.09706 13.6643 6.04358C14.0819 6.01889 14.4912 5.99421 14.8738 5.95307C14.627 5.5931 13.8412 5.23313 13.22 4.94721C13.004 4.84848 12.8086 4.75797 12.6626 4.68186C16.6325 3.75623 20.9789 4.04832 24.8809 5.16731C25.0044 4.85876 24.9529 4.4124 24.8953 3.90433C24.811 3.15971 24.7102 2.27933 25.1196 1.49974C25.1771 1.66841 25.3294 1.84736 25.4816 2.02632C25.6317 2.20116 25.784 2.37806 25.8415 2.54468C26.3003 1.98929 26.7363 0.718089 26.8227 -0.00390625C26.9605 1.11508 27.5159 2.22379 28.1227 3.18851C28.7254 4.15117 29.577 4.8999 30.4286 5.64864C31.0827 6.22253 31.7348 6.79643 32.2778 7.46905C32.6666 7.95038 32.9731 8.51605 33.2775 9.08172C33.7218 9.90656 34.1681 10.7335 34.8819 11.3094C35.5833 11.8771 36.583 12.235 37.5992 12.5991C39.1727 13.1627 40.7834 13.7387 41.3778 15.1251C41.5732 15.5797 41.5732 16.0445 41.3881 16.5012C41.1433 17.0957 40.2156 18.3319 39.5718 18.4656C39.4093 18.5006 39.2221 18.4574 39.037 18.4142C38.7922 18.3586 38.5515 18.3031 38.3767 18.4265C38.0209 18.6733 37.8069 18.8976 37.6053 19.1094C37.2927 19.4385 37.0047 19.7368 36.2663 20.0495C36.3095 20.0001 36.3547 19.9507 36.3938 19.8952C36.692 19.5002 36.8525 18.8811 36.7887 18.3915C36.2498 17.4597 34.5014 17.1697 32.9443 16.9105C32.1462 16.7789 31.3995 16.6534 30.8893 16.4559C30.2846 16.2214 29.7539 15.8697 29.2211 15.5159C28.8509 15.2711 28.4806 15.0243 28.0857 14.8165C28.17 15.2115 28.1186 15.6126 28.0672 16.0137C28.0116 16.4539 27.9561 16.8941 28.0754 17.3302C28.3264 18.2496 29.071 18.8688 29.8218 19.4941C30.4718 20.0351 31.1259 20.5802 31.4756 21.3289C31.4818 21.3454 31.49 21.3597 31.4982 21.3762C31.6155 21.6292 31.7553 21.9336 32.0083 22.0262C32.2716 22.0262 32.3889 21.8987 32.5061 21.6642C32.5699 21.7629 32.6337 21.8678 32.6624 21.981C32.7365 22.2484 32.6419 22.559 32.5164 22.7976C31.6628 24.3753 29.1512 25.5436 27.4953 26.0579C27.8471 25.702 28.242 25.2721 28.5074 24.8463C28.8283 24.33 28.5197 24.0749 28.2441 23.8466C28.0692 23.7026 27.9088 23.5689 27.9253 23.3859C27.9602 23.0197 28.0795 22.742 28.1947 22.4767C28.3654 22.0797 28.5259 21.7074 28.3798 21.0944C27.9993 19.4982 25.7305 18.2023 24.0396 17.2355C23.6509 17.0134 23.2909 16.8077 22.9926 16.6205C22.6903 16.4271 22.3982 16.2173 22.1082 16.0075C21.8181 15.7977 21.526 15.5879 21.2237 15.3945C21.129 15.8841 20.7464 16.277 20.2795 16.7563C19.3827 17.6778 18.1711 18.9222 18.0888 21.7938C18.0292 23.8569 18.6319 25.737 20.0471 27.2509C22.3139 29.6761 25.965 30.6758 29.1738 30.7498C33.6231 30.8547 37.7452 28.8245 40.915 25.7514C41.9558 24.7414 45.1236 20.9607 45.1544 19.6257C46.0821 21.4276 45.4712 28.7689 45.0804 30.8424C44.6196 33.2799 43.8009 35.5652 42.7375 37.7311C40.3308 41.4481 39.8104 41.8677 37.0808 43.9062C34.3492 45.9446 27.2115 48.2916 20.6498 48.8778C20.6498 48.8778 27.4028 49.6595 33.08 48.232C34.2936 47.9275 35.355 47.5964 36.2848 47.2487C34.8572 48.9601 33.37 50.618 31.9075 52.2513C31.4632 52.747 31.021 53.2386 30.5849 53.7302L22.7026 62.7356C22.5339 62.5382 21.9313 61.8408 21.0612 60.8329C17.5828 56.8054 9.82395 47.8206 8.3018 45.9117C1.95194 37.9718 -0.841421 30.5153 0.219973 20.2881C0.320765 20.6748 0.417442 21.0635 0.516177 21.4523C0.693076 22.1537 0.869975 22.8572 1.06539 23.5545C2.94545 30.3137 7.21366 36.028 13.3681 39.3891L13.366 39.387ZM31.4735 12.1384C31.2822 11.8566 31.0539 11.5542 30.77 11.258V11.2539C29.7786 10.2048 28.6514 9.70909 27.9026 9.46225C28.1536 9.80782 28.3531 10.1452 28.5362 10.4558C28.9743 11.1963 29.324 11.7866 30.081 12.0108C30.6631 12.1836 31.1362 12.2289 31.4735 12.1384Z" fill="#CC3334"/>
<path d="M10.9395 6.4286C10.9395 6.4286 10.9692 6.42435 10.9799 6.41797H10.9756L10.9395 6.43286V6.4286Z" fill="#CC3334"/>
<path d="M105.019 7.53516C108.902 7.53516 110.844 9.5263 110.844 13.5086V14.7469C110.844 14.8909 110.823 15.0472 110.782 15.2118C110.741 15.3763 110.651 15.5203 110.509 15.6458C110.387 15.7898 110.254 15.8823 110.112 15.9235C109.97 15.9646 109.818 15.9852 109.655 15.9852H106.971C106.625 15.9852 106.341 15.872 106.117 15.6458C105.893 15.3989 105.782 15.0986 105.782 14.7489V13.7883C105.782 13.3955 105.751 13.1178 105.689 12.9532C105.628 12.7681 105.558 12.6344 105.475 12.55C105.414 12.4678 105.292 12.4061 105.109 12.3649C104.947 12.3032 104.681 12.2723 104.317 12.2723H90.6241C90.2374 12.2723 89.9329 12.3135 89.7087 12.3958C89.5051 12.4575 89.3529 12.5398 89.2521 12.6426C89.0279 12.8072 88.9168 13.1898 88.9168 13.7883V23.1352C88.9168 23.7338 89.0279 24.1143 89.2521 24.2809C89.3529 24.3838 89.5071 24.4763 89.7087 24.5586C89.9329 24.6409 90.2374 24.682 90.6241 24.682H104.317C104.908 24.682 105.292 24.5895 105.475 24.4043C105.679 24.2192 105.78 23.8263 105.78 23.2278V22.8554C105.78 22.7115 105.8 22.5675 105.842 22.4214C105.903 22.2569 105.994 22.1005 106.115 21.9565C106.399 21.7303 106.685 21.6171 106.969 21.6171H109.653C110.019 21.6171 110.303 21.7406 110.507 21.9895C110.731 22.2157 110.842 22.5058 110.842 22.8554V23.5054C110.842 25.4452 110.344 26.92 109.347 27.932C108.372 28.9235 106.928 29.4172 105.017 29.4172H89.8609C87.95 29.4172 86.4649 28.9214 85.4076 27.932C84.3709 26.9406 83.8525 25.4452 83.8525 23.4437V13.5086C83.8525 11.5072 84.3606 10.0117 85.3768 9.02029C86.3929 8.02883 87.8883 7.53516 89.8589 7.53516H105.015H105.019Z" fill="#CC3334"/>
<path d="M118.569 7.96841C118.344 8.25638 118.233 8.54642 118.233 8.83439V16.6138C118.233 18.0208 119.373 19.1604 120.78 19.1604C122.187 19.1604 123.326 18.0208 123.326 16.6138V8.83439C123.326 8.71097 123.306 8.57727 123.265 8.43123C123.224 8.26667 123.133 8.11034 122.991 7.96635C122.87 7.82236 122.728 7.7298 122.563 7.68866C122.421 7.64752 122.279 7.62695 122.135 7.62695H119.451C119.309 7.62695 119.157 7.65781 118.994 7.71952C118.853 7.76066 118.711 7.84293 118.567 7.96635L118.569 7.96841Z" fill="#CC3334"/>
<path d="M135.55 24.5586L121.822 24.6162C119.965 24.6244 118.434 26.4407 119.724 27.7777C120.74 28.7898 122.205 29.2937 124.116 29.2937H142.809C142.931 29.2937 143.064 29.2732 143.206 29.232C143.369 29.1909 143.521 29.0983 143.663 28.9543C143.784 28.8103 143.867 28.6664 143.908 28.5203C143.969 28.3558 144 28.2118 144 28.0863V25.764C144 25.4143 143.889 25.1243 143.665 24.898C143.441 24.6717 143.157 24.5586 142.811 24.5586H135.552H135.55Z" fill="#CC3334"/>
<path d="M78.7757 7.71952C78.6338 7.65781 78.4919 7.62695 78.3479 7.62695H54.2876C53.942 7.62695 53.6581 7.74009 53.4339 7.96635C53.2097 8.19262 53.0986 8.48265 53.0986 8.83233V11.1547C53.0986 11.2986 53.1192 11.4529 53.1603 11.6195C53.2015 11.7635 53.292 11.9075 53.4339 12.0535C53.5759 12.177 53.7178 12.2592 53.8618 12.3004C53.9523 12.323 54.0366 12.3395 54.1127 12.3497V12.321H78.7058C78.8971 12.2736 79.0617 12.1831 79.2036 12.0535C79.4484 11.8273 79.5697 11.527 79.5697 11.1567V8.83439C79.5697 8.54642 79.4587 8.25638 79.2344 7.96841C79.0925 7.84499 78.9403 7.76271 78.7778 7.72157L78.7757 7.71952Z" fill="#CC3334"/>
<path d="M67.4821 17.793C68.2287 17.793 68.8335 18.4059 68.8335 19.1609V28.0881C68.8335 28.2115 68.8129 28.3555 68.7718 28.5221C68.7306 28.6661 68.6401 28.8101 68.4982 28.9561C68.3769 29.1001 68.2329 29.1927 68.0704 29.2338C67.9284 29.275 67.7865 29.2955 67.6446 29.2955H65.0219C64.88 29.2955 64.7278 29.275 64.5653 29.2338C64.4234 29.1927 64.2897 29.1001 64.1683 28.9561C64.0264 28.8121 63.9338 28.6682 63.8947 28.5221C63.8536 28.3575 63.833 28.2136 63.833 28.0881V19.1609C63.833 18.4059 64.4378 17.793 65.1844 17.793H67.4821Z" fill="#CC3334"/>
<path d="M60.4221 36.9512C60.4611 36.9512 60.5002 36.9594 60.5393 36.9759C60.5846 36.9861 60.6257 37.0088 60.6648 37.0437C60.7265 37.1219 60.7574 37.2021 60.7574 37.2823V37.9179C60.7574 38.0187 60.7244 38.101 60.6566 38.1648C60.5949 38.2203 60.5167 38.2491 60.4221 38.2491H57.8035V42.5605C57.8035 42.5934 57.7974 42.6346 57.7871 42.6798C57.7768 42.7189 57.7501 42.76 57.711 42.7991C57.6781 42.8382 57.639 42.865 57.5937 42.8752C57.5547 42.8876 57.5156 42.8917 57.4765 42.8917H56.7545C56.7154 42.8917 56.6743 42.8855 56.629 42.8752C56.5899 42.865 56.5529 42.8382 56.52 42.7991C56.4809 42.76 56.4562 42.7189 56.4439 42.6798C56.4336 42.6346 56.4274 42.5955 56.4274 42.5605V38.2491H53.8007C53.7678 38.2491 53.7287 38.2429 53.6834 38.2327C53.6444 38.2224 53.6053 38.1997 53.5662 38.1648C53.5271 38.1257 53.5024 38.0846 53.4901 38.0455C53.4798 38.0002 53.4736 37.957 53.4736 37.9179V37.2823C53.4736 37.1857 53.5045 37.1075 53.5662 37.0437C53.6279 36.982 53.7061 36.9512 53.8007 36.9512H60.42H60.4221Z" fill="#1B1B1B"/>
<path d="M67.6082 36.9512C68.1348 36.9512 68.5338 37.0931 68.8074 37.3749C69.0871 37.6526 69.227 38.0578 69.227 38.5885V39.7692C69.227 40.0469 69.1941 40.2814 69.1262 40.4748C69.0645 40.6619 68.9678 40.8162 68.8321 40.9417C68.7045 41.0672 68.5421 41.1618 68.3466 41.2297C68.1512 41.2975 67.9208 41.3449 67.6576 41.3737C67.6411 41.3737 67.6288 41.3819 67.6246 41.3983C67.6185 41.4086 67.6226 41.421 67.6329 41.4333C67.7213 41.5176 67.8345 41.6246 67.9682 41.7562C68.1019 41.8797 68.2356 42.0113 68.3713 42.1471C68.5112 42.2828 68.6428 42.4124 68.7663 42.5379C68.8938 42.6634 68.9946 42.7621 69.0686 42.8362C69.0789 42.8464 69.083 42.8608 69.0769 42.8794C69.0707 42.8917 69.0625 42.8958 69.0522 42.8958H67.1474C67.131 42.8958 67.1227 42.8937 67.1227 42.8876C66.8821 42.651 66.625 42.398 66.3514 42.1327C66.0778 41.8612 65.8125 41.5999 65.5533 41.351C65.2962 41.1021 65.0575 40.8718 64.8395 40.664C64.6276 40.4542 64.459 40.2896 64.3356 40.1724C64.3253 40.1621 64.3212 40.1477 64.3273 40.1292C64.3335 40.1127 64.3438 40.1045 64.3602 40.1045H67.3963C67.565 40.1045 67.6761 40.0757 67.7316 40.0202C67.7933 39.9646 67.8242 39.8494 67.8242 39.6808V38.679C67.8242 38.5762 67.8159 38.5042 67.7995 38.4589C67.783 38.4075 67.7625 38.3705 67.7398 38.3479C67.7172 38.3191 67.6802 38.2964 67.6308 38.28C67.5814 38.2635 67.5012 38.2553 67.3963 38.2553H63.6465V42.5667C63.6465 42.5996 63.6403 42.6407 63.63 42.686C63.6197 42.7251 63.593 42.7662 63.5539 42.8053C63.521 42.8444 63.4819 42.8711 63.4367 42.8814C63.3976 42.8937 63.3585 42.8979 63.3194 42.8979H62.581C62.3856 42.8979 62.2765 42.795 62.2539 42.5914V37.2865C62.2539 37.1898 62.2848 37.1116 62.3465 37.0478C62.4082 36.9861 62.4863 36.9553 62.581 36.9553H67.6061L67.6082 36.9512Z" fill="#1B1B1B"/>
<path d="M69.9688 42.5891C69.9688 42.5541 69.975 42.5233 69.9853 42.4965C70.0018 42.4677 70.0162 42.441 70.0264 42.4122L73.3896 37.1752C73.3999 37.1525 73.4204 37.1279 73.4492 37.0991C73.478 37.0662 73.513 37.0332 73.5583 37.0065C73.6076 36.9715 73.6673 36.9551 73.7352 36.9551H74.5394C74.6176 36.9551 74.6855 36.9777 74.741 37.023C74.8027 37.062 74.8521 37.1155 74.8912 37.1834L78.2461 42.4204C78.2749 42.4657 78.2934 42.5212 78.3057 42.5912C78.3057 42.6981 78.2605 42.7866 78.172 42.8545C78.1 42.8833 78.0404 42.8977 77.9951 42.8977H77.1312C77.0633 42.8977 77.0078 42.8833 76.9625 42.8545C76.9132 42.8257 76.8741 42.7948 76.8453 42.7619C76.8165 42.7228 76.798 42.692 76.7877 42.6693L76.6108 42.406C76.5655 42.3258 76.5182 42.2477 76.4689 42.1674C76.4195 42.0872 76.3742 42.0193 76.3352 41.9638C76.329 41.9576 76.3208 41.9556 76.3105 41.9556H71.9723C71.9559 41.9556 71.9477 41.9576 71.9477 41.9638L71.4951 42.6673C71.4787 42.6961 71.456 42.7269 71.4272 42.7598C71.3984 42.7948 71.3635 42.8257 71.3182 42.8524C71.2236 42.8812 71.1639 42.8956 71.1413 42.8956H70.2774C70.2321 42.8956 70.1745 42.8812 70.1005 42.8524C70.012 42.7845 69.9668 42.6961 69.9668 42.5891H69.9688ZM75.4466 40.67C75.4856 40.67 75.4939 40.6535 75.4712 40.6185L74.1712 38.5719C74.1486 38.5492 74.126 38.5492 74.1034 38.5719L72.8033 40.6185C72.7746 40.6535 72.7828 40.67 72.828 40.67H75.4466Z" fill="#1B1B1B"/>
<path d="M80.7252 36.9512C80.8034 36.9512 80.8651 36.9676 80.9104 37.0026C80.9556 37.0314 80.9906 37.0581 81.0194 37.0869C81.0256 37.0869 81.0297 37.089 81.0358 37.0952L85.2814 41.1268V37.2823C85.2814 37.1857 85.3123 37.1075 85.374 37.0437C85.4357 36.982 85.5139 36.9512 85.6085 36.9512H86.3469C86.4416 36.9512 86.5197 36.982 86.5814 37.0437C86.6493 37.1054 86.6822 37.1857 86.6822 37.2823V42.5626C86.6822 42.6017 86.676 42.6449 86.6658 42.6901C86.6555 42.7292 86.6287 42.7662 86.5897 42.8012C86.5567 42.8403 86.5177 42.867 86.4724 42.8773C86.4272 42.8896 86.386 42.8937 86.3469 42.8937H85.4316C85.3534 42.8937 85.2917 42.8794 85.2465 42.8506C85.2012 42.8156 85.1642 42.7888 85.1374 42.7662L85.121 42.7498L80.8672 38.7181V42.5626C80.8672 42.5955 80.861 42.6366 80.8507 42.6819C80.8404 42.721 80.8137 42.7621 80.7746 42.8012C80.7417 42.8403 80.7026 42.867 80.6574 42.8773C80.6183 42.8896 80.5792 42.8937 80.5401 42.8937H79.8017C79.707 42.8937 79.6289 42.8629 79.5672 42.8012C79.5055 42.7395 79.4746 42.6593 79.4746 42.5626V37.2823C79.4746 37.1857 79.5055 37.1075 79.5672 37.0437C79.6289 36.982 79.707 36.9512 79.8017 36.9512H80.7252Z" fill="#1B1B1B"/>
<path d="M94.6954 36.8908C94.8682 36.8908 95.0307 36.9258 95.1808 36.9937C95.331 37.0554 95.4626 37.1438 95.5758 37.257C95.6889 37.3701 95.7753 37.5038 95.837 37.656C95.9049 37.8082 95.9378 37.9728 95.9378 38.1476V38.1559C95.9378 38.1785 95.9275 38.1888 95.9049 38.1888H90.5527C90.4354 38.1888 90.3429 38.1991 90.275 38.2217C90.2071 38.2443 90.1598 38.269 90.1331 38.2978C90.1043 38.3266 90.0796 38.3677 90.0569 38.4253C90.0405 38.4768 90.0323 38.5487 90.0323 38.6454C90.0323 38.8203 90.0693 38.9457 90.1413 39.0198C90.1742 39.0589 90.2256 39.0938 90.2914 39.1206C90.3593 39.1432 90.456 39.1597 90.5856 39.172L94.1174 39.3756C94.6769 39.4044 95.1191 39.5628 95.4421 39.8508C95.7712 40.1347 95.9378 40.5687 95.9378 41.157C95.9378 41.7453 95.7753 42.2101 95.4524 42.4817C95.1335 42.7532 94.6831 42.8889 94.1009 42.8889H89.915C89.7463 42.8889 89.588 42.8581 89.4378 42.7964C89.2876 42.7285 89.1519 42.6401 89.0346 42.5331C88.9236 42.42 88.833 42.2863 88.7672 42.134C88.7014 41.9818 88.6644 41.8193 88.6582 41.6507C88.6582 41.6219 88.6685 41.6075 88.6911 41.6075H90.2688C90.5321 41.6013 90.8057 41.5992 91.0916 41.5992H92.9614C93.309 41.5992 93.6669 41.5972 94.0351 41.591C94.2141 41.591 94.3457 41.5622 94.4301 41.5067C94.5144 41.445 94.5555 41.3195 94.5555 41.1323C94.5555 40.9575 94.5226 40.8299 94.4547 40.7497C94.4218 40.7147 94.3704 40.6839 94.3046 40.6571C94.2367 40.6283 94.14 40.6119 94.0104 40.6057L90.4786 40.4021C89.913 40.3692 89.4687 40.2108 89.1457 39.9269C88.8207 39.6431 88.6582 39.2049 88.6582 38.6105C88.6582 38.016 88.8207 37.5655 89.1457 37.294C89.4707 37.0225 89.9212 36.8867 90.4971 36.8867H94.6995L94.6954 36.8908Z" fill="#1B1B1B"/>
<path d="M108.29 36.9258C109.358 36.9258 109.892 37.4709 109.892 38.5631V38.9025C109.892 38.9416 109.886 38.9848 109.876 39.0301C109.866 39.0753 109.839 39.1144 109.8 39.1494C109.767 39.1884 109.73 39.2152 109.691 39.2255C109.652 39.2358 109.611 39.2419 109.565 39.2419H108.827C108.732 39.2419 108.654 39.2111 108.592 39.1494C108.531 39.0815 108.5 38.9992 108.5 38.9025V38.6392C108.5 38.5323 108.492 38.4541 108.475 38.4109C108.459 38.3595 108.438 38.3225 108.418 38.2998C108.401 38.2772 108.366 38.2608 108.317 38.2484C108.271 38.232 108.199 38.2237 108.099 38.2237H104.332C104.225 38.2237 104.143 38.2361 104.081 38.2587C104.026 38.2752 103.983 38.2978 103.956 38.3266C103.894 38.3718 103.863 38.4767 103.863 38.6413V41.2043C103.863 41.3688 103.894 41.4737 103.956 41.519C103.985 41.5478 104.026 41.5725 104.081 41.5951C104.143 41.6177 104.227 41.628 104.332 41.628H108.099C108.261 41.628 108.366 41.6033 108.418 41.5519C108.473 41.5005 108.502 41.3935 108.502 41.229V41.1282C108.502 41.0891 108.508 41.0479 108.518 41.0089C108.535 40.9636 108.559 40.9204 108.594 40.8813C108.673 40.8196 108.751 40.7888 108.829 40.7888H109.567C109.668 40.7888 109.746 40.8217 109.802 40.8916C109.864 40.9533 109.894 41.0335 109.894 41.1282V41.3071C109.894 41.8399 109.757 42.243 109.483 42.5207C109.214 42.7922 108.817 42.928 108.292 42.928H104.123C103.596 42.928 103.189 42.7922 102.897 42.5207C102.611 42.2492 102.469 41.8378 102.469 41.2907V38.5652C102.469 38.016 102.609 37.6066 102.888 37.3351C103.168 37.0636 103.58 36.9278 104.123 36.9278H108.292L108.29 36.9258Z" fill="#1B1B1B"/>
<path d="M112.049 37.2823C112.049 37.1857 112.08 37.1075 112.141 37.0437C112.203 36.982 112.281 36.9512 112.376 36.9512H113.114C113.153 36.9512 113.193 36.9573 113.232 36.9676C113.277 36.9779 113.316 37.0047 113.349 37.0437C113.388 37.0828 113.413 37.126 113.425 37.1713C113.435 37.2104 113.441 37.2474 113.441 37.2823V39.2776H117.78V37.2823C117.78 37.1857 117.81 37.1075 117.872 37.0437C117.934 36.982 118.012 36.9512 118.107 36.9512H118.845C118.884 36.9512 118.923 36.9594 118.962 36.9759C119.008 36.9861 119.049 37.0088 119.088 37.0437C119.149 37.1219 119.18 37.2021 119.18 37.2823V42.5626C119.18 42.6634 119.147 42.7456 119.08 42.8094C119.018 42.8649 118.94 42.8937 118.845 42.8937H118.107C118.012 42.8937 117.934 42.8629 117.872 42.8012C117.81 42.7395 117.78 42.6593 117.78 42.5626V40.5673H113.441V42.5626C113.441 42.5955 113.435 42.6366 113.425 42.6819C113.415 42.721 113.388 42.7621 113.349 42.8012C113.316 42.8403 113.277 42.867 113.232 42.8773C113.193 42.8896 113.153 42.8937 113.114 42.8937H112.376C112.281 42.8937 112.203 42.8629 112.141 42.8012C112.08 42.7395 112.049 42.6593 112.049 42.5626V37.2823Z" fill="#1B1B1B"/>
<path d="M123.135 36.9512C123.174 36.9512 123.213 36.9573 123.252 36.9676C123.297 36.9779 123.336 37.0047 123.369 37.0437C123.408 37.0828 123.433 37.126 123.445 37.1713C123.456 37.2104 123.462 37.2474 123.462 37.2823V42.5626C123.462 42.5955 123.456 42.6366 123.445 42.6819C123.435 42.721 123.408 42.7621 123.369 42.8012C123.336 42.8403 123.297 42.867 123.252 42.8773C123.213 42.8896 123.174 42.8937 123.135 42.8937H122.396C122.302 42.8937 122.224 42.8629 122.162 42.8012C122.1 42.7395 122.069 42.6593 122.069 42.5626V37.2823C122.069 37.1857 122.1 37.1075 122.162 37.0437C122.224 36.982 122.302 36.9512 122.396 36.9512H123.135Z" fill="#1B1B1B"/>
<path d="M127.596 36.9512C127.675 36.9512 127.736 36.9676 127.781 37.0026C127.827 37.0314 127.862 37.0581 127.89 37.0869C127.897 37.0869 127.901 37.089 127.907 37.0952L132.153 41.1268V37.2823C132.153 37.1857 132.183 37.1075 132.245 37.0437C132.307 36.982 132.385 36.9512 132.48 36.9512H133.218C133.313 36.9512 133.391 36.982 133.453 37.0437C133.52 37.1054 133.553 37.1857 133.553 37.2823V42.5626C133.553 42.6017 133.547 42.6449 133.537 42.6901C133.527 42.7292 133.5 42.7662 133.461 42.8012C133.428 42.8403 133.389 42.867 133.344 42.8773C133.298 42.8896 133.257 42.8937 133.218 42.8937H132.303C132.225 42.8937 132.163 42.8794 132.118 42.8506C132.072 42.8156 132.037 42.7888 132.009 42.7662L131.992 42.7498L127.738 38.7181V42.5626C127.738 42.5955 127.732 42.6366 127.722 42.6819C127.712 42.721 127.685 42.7621 127.646 42.8012C127.613 42.8403 127.574 42.867 127.528 42.8773C127.489 42.8896 127.45 42.8937 127.411 42.8937H126.673C126.578 42.8937 126.5 42.8629 126.438 42.8012C126.377 42.7395 126.346 42.6593 126.346 42.5626V37.2823C126.346 37.1857 126.377 37.1075 126.438 37.0437C126.5 36.982 126.578 36.9512 126.673 36.9512H127.596Z" fill="#1B1B1B"/>
<path d="M134.714 42.5891C134.714 42.5541 134.72 42.5233 134.73 42.4965C134.747 42.4677 134.761 42.441 134.772 42.4122L138.135 37.1752C138.145 37.1525 138.166 37.1279 138.194 37.0991C138.223 37.0662 138.258 37.0332 138.303 37.0065C138.353 36.9715 138.412 36.9551 138.48 36.9551H139.287C139.365 36.9551 139.433 36.9777 139.488 37.023C139.55 37.062 139.599 37.1155 139.638 37.1834L142.993 42.4204C143.022 42.4657 143.041 42.5212 143.053 42.5912C143.053 42.6981 143.008 42.7866 142.919 42.8545C142.847 42.8833 142.788 42.8977 142.742 42.8977H141.878C141.811 42.8977 141.755 42.8833 141.71 42.8545C141.66 42.8257 141.621 42.7948 141.592 42.7619C141.564 42.7228 141.545 42.692 141.533 42.6693L141.356 42.406C141.311 42.3258 141.263 42.2477 141.214 42.1674C141.165 42.0872 141.119 42.0193 141.08 41.9638C141.074 41.9576 141.066 41.9556 141.056 41.9556H136.717C136.701 41.9556 136.693 41.9576 136.693 41.9638L136.24 42.6673C136.224 42.6961 136.201 42.7269 136.172 42.7598C136.144 42.7948 136.109 42.8257 136.063 42.8524C135.969 42.8812 135.909 42.8956 135.886 42.8956H135.023C134.977 42.8956 134.92 42.8812 134.846 42.8524C134.757 42.7845 134.712 42.6961 134.712 42.5891H134.714ZM140.192 40.67C140.231 40.67 140.239 40.6535 140.216 40.6185L138.916 38.5719C138.894 38.5492 138.871 38.5492 138.848 38.5719L137.548 40.6185C137.52 40.6535 137.53 40.67 137.573 40.67H140.19H140.192Z" fill="#1B1B1B"/>
<path d="M54.1896 46.048C54.1896 45.9677 54.2204 45.8896 54.2821 45.8094C54.3212 45.7764 54.3603 45.7518 54.3994 45.7415C54.4446 45.725 54.4858 45.7168 54.5248 45.7168H55.2633C55.3024 45.7168 55.3415 45.723 55.3805 45.7333C55.4258 45.7456 55.4649 45.7703 55.4978 45.8094C55.5369 45.8484 55.5616 45.8916 55.5739 45.9369C55.5842 45.976 55.5904 46.013 55.5904 46.048V49.9439C55.5904 50.0405 55.5986 50.1125 55.615 50.164C55.6315 50.2154 55.6521 50.2524 55.6726 50.275C55.7014 50.2977 55.7364 50.3182 55.7816 50.3347C55.831 50.3511 55.9071 50.3594 56.0079 50.3594H60.9487C61.0434 50.3594 61.1215 50.3902 61.1832 50.4519C61.245 50.5136 61.2758 50.5939 61.2758 50.6905V51.3261C61.2758 51.3611 61.2676 51.4002 61.2511 51.4454C61.2408 51.4845 61.2182 51.5257 61.1832 51.5648C61.1442 51.6038 61.103 51.6306 61.0578 51.6409C61.0187 51.6511 60.9817 51.6573 60.9487 51.6573H55.8063C55.2797 51.6573 54.8786 51.5195 54.5989 51.2418C54.3253 50.9579 54.1875 50.5507 54.1875 50.02V46.048H54.1896Z" fill="#1B1B1B"/>
<path d="M65.0557 47.3287C65.0557 46.7795 65.1955 46.3702 65.4753 46.0987C65.755 45.8272 66.1664 45.6914 66.7074 45.6914H70.8357C71.3603 45.6914 71.7675 45.8272 72.0514 46.0987C72.3373 46.3702 72.4793 46.7816 72.4793 47.3287V50.0542C72.4793 50.587 72.3373 50.9943 72.0514 51.2761C71.7655 51.5538 71.3603 51.6916 70.8357 51.6916H66.7074C66.1808 51.6916 65.7735 51.5558 65.4835 51.2843C65.1976 51.0128 65.0557 50.6014 65.0557 50.0542V47.3287ZM66.4482 49.9678C66.4482 50.1324 66.4791 50.2373 66.5408 50.2826C66.5696 50.3114 66.6107 50.336 66.6663 50.3587C66.728 50.3813 66.8123 50.3916 66.9172 50.3916H70.6259C70.7329 50.3916 70.8131 50.3833 70.8687 50.3669C70.9304 50.3443 70.9756 50.3196 71.0024 50.2908C71.025 50.262 71.0435 50.225 71.062 50.1797C71.0785 50.1345 71.0867 50.0645 71.0867 49.9678V47.4049C71.0867 47.2341 71.0497 47.1251 70.9777 47.0737C70.9057 47.0181 70.7884 46.9894 70.6259 46.9894H66.9172C66.8103 46.9894 66.7259 46.9996 66.6663 47.0243C66.6107 47.0408 66.5675 47.0634 66.5408 47.0922C66.4791 47.1375 66.4482 47.2424 66.4482 47.4069V49.9699V49.9678Z" fill="#1B1B1B"/>
<path d="M77.4805 47.3287C77.4805 46.7795 77.6203 46.3702 77.9001 46.0987C78.1798 45.8272 78.5912 45.6914 79.1343 45.6914H83.2873C83.7069 45.6914 84.0586 45.7901 84.3446 45.9876C84.6346 46.1851 84.8094 46.506 84.865 46.9462C84.8814 46.975 84.8711 46.9894 84.8321 46.9894H79.3461C79.2392 46.9894 79.1569 46.9996 79.0952 47.0243C79.0396 47.0408 78.9965 47.0634 78.9697 47.0922C78.908 47.1375 78.8771 47.2424 78.8771 47.4069V49.9699C78.8771 50.1345 78.908 50.2394 78.9697 50.2846C78.9985 50.3134 79.0396 50.3381 79.0952 50.3607C79.1569 50.3833 79.2412 50.3936 79.3461 50.3936H83.096C83.1968 50.3936 83.2729 50.3854 83.3223 50.3689C83.3716 50.3525 83.4086 50.3299 83.4313 50.3011C83.4539 50.2784 83.4724 50.2435 83.4889 50.2003C83.5053 50.1489 83.5135 50.0727 83.5135 49.972V49.6757H81.4998C81.3887 49.6757 81.2961 49.6428 81.2221 49.575C81.1542 49.5071 81.1213 49.4166 81.1213 49.3034V48.7604C81.1213 48.6473 81.1542 48.5568 81.2221 48.4889C81.2941 48.421 81.3866 48.386 81.4998 48.386H84.5441C84.6552 48.386 84.7416 48.421 84.8053 48.4889C84.8732 48.5568 84.9061 48.6473 84.9061 48.7604V50.0583C84.9061 50.5911 84.7683 50.9984 84.4947 51.2802C84.2211 51.5579 83.82 51.6957 83.2955 51.6957H79.1343C78.6077 51.6957 78.2004 51.5599 77.9104 51.2884C77.6245 51.0169 77.4825 50.6055 77.4825 50.0583V47.3329L77.4805 47.3287Z" fill="#1B1B1B"/>
<path d="M90.7442 45.7168C90.7833 45.7168 90.8224 45.723 90.8615 45.7333C90.9067 45.7456 90.9458 45.7703 90.9787 45.8094C91.0178 45.8484 91.0425 45.8916 91.0548 45.9369C91.0651 45.976 91.0713 46.013 91.0713 46.048V51.3282C91.0713 51.3632 91.0651 51.4023 91.0548 51.4475C91.0445 51.4866 91.0178 51.5277 90.9787 51.5668C90.9458 51.6059 90.9067 51.6326 90.8615 51.6429C90.8224 51.6532 90.7833 51.6594 90.7442 51.6594H90.0058C89.9111 51.6594 89.833 51.6285 89.7713 51.5668C89.7096 51.5051 89.6787 51.4249 89.6787 51.3282V46.048C89.6787 45.9513 89.7096 45.8731 89.7713 45.8094C89.833 45.7477 89.9111 45.7168 90.0058 45.7168H90.7442Z" fill="#1B1B1B"/>
<path d="M101.7 45.6562C101.873 45.6562 102.036 45.6912 102.188 45.7591C102.338 45.8208 102.47 45.9093 102.583 46.0224C102.694 46.1355 102.782 46.2692 102.844 46.4214C102.912 46.5737 102.945 46.7382 102.945 46.9131V46.9213C102.945 46.9439 102.935 46.9542 102.912 46.9542H97.5597C97.4425 46.9542 97.3499 46.9645 97.282 46.9892C97.2141 47.0118 97.1668 47.0365 97.1401 47.0653C97.1113 47.0941 97.0866 47.1352 97.064 47.1928C97.0475 47.2442 97.0393 47.3162 97.0393 47.4129C97.0393 47.5877 97.0763 47.7132 97.1483 47.7873C97.1812 47.8263 97.2327 47.8613 97.2985 47.8901C97.3664 47.9127 97.463 47.9292 97.5926 47.9415L101.124 48.1452C101.684 48.174 102.126 48.3324 102.449 48.6203C102.778 48.9042 102.945 49.3382 102.945 49.9286C102.945 50.5189 102.782 50.9817 102.457 51.2533C102.139 51.5248 101.688 51.6605 101.106 51.6605H96.92C96.7513 51.6605 96.5929 51.6297 96.4407 51.568C96.2906 51.5001 96.1548 51.4116 96.0376 51.3047C95.9265 51.1915 95.836 51.0578 95.7702 50.9056C95.7043 50.7534 95.6673 50.5909 95.6611 50.4222C95.6611 50.3996 95.6714 50.3852 95.694 50.379H97.2717C97.535 50.3729 97.8086 50.3708 98.0945 50.3708H99.9664C100.312 50.3708 100.67 50.3688 101.04 50.3626C101.219 50.3626 101.351 50.3338 101.435 50.2783C101.519 50.2165 101.561 50.0911 101.561 49.9039C101.561 49.729 101.528 49.6015 101.46 49.5213C101.427 49.4884 101.375 49.4555 101.31 49.4287C101.242 49.3999 101.145 49.3835 101.015 49.3773L97.4836 49.1737C96.9179 49.1407 96.4736 48.9824 96.1507 48.6985C95.8257 48.4146 95.6652 47.9765 95.6652 47.382C95.6652 46.7876 95.8277 46.3371 96.1507 46.0656C96.4757 45.7941 96.9262 45.6583 97.5021 45.6583H101.705L101.7 45.6562Z" fill="#1B1B1B"/>
<path d="M113.632 45.7168C113.671 45.7168 113.71 45.725 113.749 45.7415C113.795 45.7518 113.836 45.7764 113.875 45.8094C113.936 45.8896 113.967 45.9677 113.967 46.048V46.6836C113.967 46.7844 113.934 46.8666 113.867 46.9304C113.805 46.988 113.727 47.0147 113.632 47.0147H111.014V51.3261C111.014 51.3611 111.007 51.4002 110.997 51.4454C110.987 51.4845 110.96 51.5257 110.921 51.5648C110.888 51.6038 110.849 51.6306 110.804 51.6409C110.765 51.6511 110.726 51.6573 110.686 51.6573H109.964C109.925 51.6573 109.884 51.6511 109.839 51.6409C109.8 51.6306 109.763 51.6038 109.73 51.5648C109.691 51.5257 109.666 51.4845 109.654 51.4454C109.644 51.4002 109.637 51.3611 109.637 51.3261V47.0147H107.011C106.978 47.0147 106.939 47.0086 106.893 46.9983C106.854 46.988 106.815 46.9633 106.776 46.9304C106.737 46.8913 106.712 46.8502 106.7 46.8111C106.69 46.7659 106.684 46.7227 106.684 46.6836V46.048C106.684 45.9513 106.714 45.8731 106.776 45.8094C106.838 45.7477 106.916 45.7168 107.011 45.7168H113.63H113.632Z" fill="#1B1B1B"/>
<path d="M119.104 45.7168C119.143 45.7168 119.182 45.723 119.221 45.7333C119.266 45.7456 119.305 45.7703 119.338 45.8094C119.377 45.8484 119.402 45.8916 119.414 45.9369C119.424 45.976 119.431 46.013 119.431 46.048V51.3282C119.431 51.3632 119.424 51.4023 119.414 51.4475C119.404 51.4866 119.377 51.5277 119.338 51.5668C119.305 51.6059 119.266 51.6326 119.221 51.6429C119.182 51.6532 119.143 51.6594 119.104 51.6594H118.365C118.271 51.6594 118.192 51.6285 118.131 51.5668C118.069 51.5051 118.038 51.4249 118.038 51.3282V46.048C118.038 45.9513 118.069 45.8731 118.131 45.8094C118.192 45.7477 118.271 45.7168 118.365 45.7168H119.104Z" fill="#1B1B1B"/>
<path d="M130.363 45.6914C130.799 45.6914 131.155 45.7901 131.429 45.9876C131.702 46.1851 131.873 46.506 131.941 46.9462C131.957 46.975 131.947 46.9894 131.908 46.9894H126.404C126.297 46.9894 126.214 46.9996 126.153 47.0243C126.097 47.0408 126.054 47.0634 126.027 47.0922C125.966 47.1375 125.935 47.2424 125.935 47.4069V49.9699C125.935 50.1345 125.966 50.2394 126.027 50.2846C126.056 50.3134 126.097 50.3381 126.153 50.3607C126.214 50.3833 126.299 50.3936 126.404 50.3936H131.908C131.937 50.3936 131.949 50.406 131.949 50.4286C131.881 50.8708 131.709 51.1917 131.429 51.3954C131.155 51.5928 130.799 51.6936 130.363 51.6936H126.194C125.667 51.6936 125.26 51.5579 124.968 51.2864C124.682 51.0148 124.54 50.6034 124.54 50.0563V47.3308C124.54 46.7816 124.68 46.3723 124.96 46.1007C125.239 45.8292 125.651 45.6935 126.194 45.6935H130.363V45.6914Z" fill="#1B1B1B"/>
<path d="M141.917 45.6562C142.09 45.6562 142.252 45.6912 142.405 45.7591C142.555 45.8208 142.686 45.9093 142.8 46.0224C142.911 46.1355 142.999 46.2692 143.059 46.4214C143.127 46.5737 143.159 46.7382 143.159 46.9131V46.9213C143.159 46.9439 143.149 46.9542 143.127 46.9542H137.774C137.657 46.9542 137.565 46.9645 137.497 46.9892C137.429 47.0118 137.381 47.0365 137.355 47.0653C137.326 47.0941 137.301 47.1352 137.279 47.1928C137.262 47.2442 137.254 47.3162 137.254 47.4129C137.254 47.5877 137.291 47.7132 137.363 47.7873C137.396 47.8263 137.447 47.8613 137.513 47.8901C137.581 47.9127 137.678 47.9292 137.807 47.9415L141.339 48.1452C141.899 48.174 142.341 48.3324 142.664 48.6203C142.993 48.9042 143.159 49.3382 143.159 49.9286C143.159 50.5189 142.997 50.9817 142.674 51.2533C142.355 51.5248 141.905 51.6605 141.323 51.6605H137.137C136.968 51.6605 136.81 51.6297 136.659 51.568C136.509 51.5001 136.374 51.4116 136.256 51.3047C136.145 51.1915 136.055 51.0578 135.989 50.9056C135.923 50.7534 135.886 50.5909 135.88 50.4222C135.88 50.3996 135.89 50.3852 135.913 50.379H137.49C137.754 50.3729 138.027 50.3708 138.313 50.3708H140.183C140.531 50.3708 140.889 50.3688 141.257 50.3626C141.436 50.3626 141.567 50.3338 141.652 50.2783C141.736 50.2165 141.777 50.0911 141.777 49.9039C141.777 49.729 141.744 49.6015 141.676 49.5213C141.644 49.4884 141.592 49.4555 141.526 49.4287C141.458 49.3999 141.362 49.3835 141.232 49.3773L137.7 49.1737C137.135 49.1407 136.69 48.9824 136.365 48.6985C136.04 48.4146 135.88 47.9765 135.88 47.382C135.88 46.7876 136.042 46.3371 136.365 46.0656C136.69 45.7941 137.141 45.6583 137.717 45.6583H141.919L141.917 45.6562Z" fill="#1B1B1B"/>
</g>
<defs>
<clipPath id="clip0_2008_2380">
<rect width="144" height="62.7375" fill="white"/>
</clipPath>
</defs>
</svg>
